<?xml version="1.0" encoding="utf-8" standalone="no"?>
<!DOCTYPE svg PUBLIC "-//W3C//DTD SVG 1.1//EN"
  "http://www.w3.org/Graphics/SVG/1.1/DTD/svg11.dtd">
<svg xmlns:xlink="http://www.w3.org/1999/xlink" width="828.475482pt" height="562.821135pt" viewBox="0 0 828.475482 562.821135" xmlns="http://www.w3.org/2000/svg" version="1.1">
 <metadata>
  <rdf:RDF xmlns:dc="http://purl.org/dc/elements/1.1/" xmlns:cc="http://creativecommons.org/ns#" xmlns:rdf="http://www.w3.org/1999/02/22-rdf-syntax-ns#">
   <cc:Work>
    <dc:type rdf:resource="http://purl.org/dc/dcmitype/StillImage"/>
    <dc:date>2026-03-06T08:37:53.698243</dc:date>
    <dc:format>image/svg+xml</dc:format>
    <dc:creator>
     <cc:Agent>
      <dc:title>Matplotlib v3.10.8, https://matplotlib.org/</dc:title>
     </cc:Agent>
    </dc:creator>
   </cc:Work>
  </rdf:RDF>
 </metadata>
 <defs>
  <style type="text/css">*{stroke-linejoin: round; stroke-linecap: butt}</style>
 </defs>
 <g id="figure_1">
  <g id="patch_1">
   <path d="M 0 562.821135 
L 828.475482 562.821135 
L 828.475482 0 
L 0 0 
z
" style="fill: #ffffff"/>
  </g>
  <g id="axes_1">
   <g id="patch_2">
    <path d="M 74.428632 273.879403 
L 817.468632 273.879403 
L 817.468632 41.76 
L 74.428632 41.76 
z
" style="fill: #eeeeee"/>
   </g>
   <g id="matplotlib.axis_1">
    <g id="xtick_1">
     <g id="line2d_1">
      <path d="M 108.203177 273.879403 
L 108.203177 41.76 
" clip-path="url(#p83e0887ee8)" style="fill: none; stroke-dasharray: 1.85,0.8; stroke-dashoffset: 0; stroke: #0485d1; stroke-opacity: 0.2; stroke-width: 0.5"/>
     </g>
     <g id="line2d_2">
      <defs>
       <path id="m70556f83c5" d="M 0 0 
L 0 -3.5 
" style="stroke: #000000; stroke-width: 0.8"/>
      </defs>
      <g>
       <use xlink:href="#m70556f83c5" x="108.203177" y="273.879403" style="stroke: #000000; stroke-width: 0.8"/>
      </g>
     </g>
    </g>
    <g id="xtick_2">
     <g id="line2d_3">
      <path d="M 249.417888 273.879403 
L 249.417888 41.76 
" clip-path="url(#p83e0887ee8)" style="fill: none; stroke-dasharray: 1.85,0.8; stroke-dashoffset: 0; stroke: #0485d1; stroke-opacity: 0.2; stroke-width: 0.5"/>
     </g>
     <g id="line2d_4">
      <g>
       <use xlink:href="#m70556f83c5" x="249.417888" y="273.879403" style="stroke: #000000; stroke-width: 0.8"/>
      </g>
     </g>
    </g>
    <g id="xtick_3">
     <g id="line2d_5">
      <path d="M 390.632599 273.879403 
L 390.632599 41.76 
" clip-path="url(#p83e0887ee8)" style="fill: none; stroke-dasharray: 1.85,0.8; stroke-dashoffset: 0; stroke: #0485d1; stroke-opacity: 0.2; stroke-width: 0.5"/>
     </g>
     <g id="line2d_6">
      <g>
       <use xlink:href="#m70556f83c5" x="390.632599" y="273.879403" style="stroke: #000000; stroke-width: 0.8"/>
      </g>
     </g>
    </g>
    <g id="xtick_4">
     <g id="line2d_7">
      <path d="M 531.84731 273.879403 
L 531.84731 41.76 
" clip-path="url(#p83e0887ee8)" style="fill: none; stroke-dasharray: 1.85,0.8; stroke-dashoffset: 0; stroke: #0485d1; stroke-opacity: 0.2; stroke-width: 0.5"/>
     </g>
     <g id="line2d_8">
      <g>
       <use xlink:href="#m70556f83c5" x="531.84731" y="273.879403" style="stroke: #000000; stroke-width: 0.8"/>
      </g>
     </g>
    </g>
    <g id="xtick_5">
     <g id="line2d_9">
      <path d="M 673.062021 273.879403 
L 673.062021 41.76 
" clip-path="url(#p83e0887ee8)" style="fill: none; stroke-dasharray: 1.85,0.8; stroke-dashoffset: 0; stroke: #0485d1; stroke-opacity: 0.2; stroke-width: 0.5"/>
     </g>
     <g id="line2d_10">
      <g>
       <use xlink:href="#m70556f83c5" x="673.062021" y="273.879403" style="stroke: #000000; stroke-width: 0.8"/>
      </g>
     </g>
    </g>
    <g id="xtick_6">
     <g id="line2d_11">
      <path d="M 814.276732 273.879403 
L 814.276732 41.76 
" clip-path="url(#p83e0887ee8)" style="fill: none; stroke-dasharray: 1.85,0.8; stroke-dashoffset: 0; stroke: #0485d1; stroke-opacity: 0.2; stroke-width: 0.5"/>
     </g>
     <g id="line2d_12">
      <g>
       <use xlink:href="#m70556f83c5" x="814.276732" y="273.879403" style="stroke: #000000; stroke-width: 0.8"/>
      </g>
     </g>
    </g>
   </g>
   <g id="matplotlib.axis_2">
    <g id="ytick_1">
     <g id="line2d_13">
      <path d="M 74.428632 263.329225 
L 817.468632 263.329225 
" clip-path="url(#p83e0887ee8)" style="fill: none; stroke-dasharray: 1.85,0.8; stroke-dashoffset: 0; stroke: #0485d1; stroke-opacity: 0.2; stroke-width: 0.5"/>
     </g>
     <g id="line2d_14">
      <defs>
       <path id="m04503f0756" d="M 0 0 
L 3.5 0 
" style="stroke: #000000; stroke-width: 0.8"/>
      </defs>
      <g>
       <use xlink:href="#m04503f0756" x="74.428632" y="263.329225" style="stroke: #000000; stroke-width: 0.8"/>
      </g>
     </g>
     <g id="text_1">
      <!-- 0.0 -->
      <g transform="translate(35.941757 271.687506) scale(0.22 -0.22)">
       <defs>
        <path id="DejaVuSans-30" d="M 2034 4250 
Q 1547 4250 1301 3770 
Q 1056 3291 1056 2328 
Q 1056 1369 1301 889 
Q 1547 409 2034 409 
Q 2525 409 2770 889 
Q 3016 1369 3016 2328 
Q 3016 3291 2770 3770 
Q 2525 4250 2034 4250 
z
M 2034 4750 
Q 2819 4750 3233 4129 
Q 3647 3509 3647 2328 
Q 3647 1150 3233 529 
Q 2819 -91 2034 -91 
Q 1250 -91 836 529 
Q 422 1150 422 2328 
Q 422 3509 836 4129 
Q 1250 4750 2034 4750 
z
" transform="scale(0.015625)"/>
        <path id="DejaVuSans-2e" d="M 684 794 
L 1344 794 
L 1344 0 
L 684 0 
L 684 794 
z
" transform="scale(0.015625)"/>
       </defs>
       <use xlink:href="#DejaVuSans-30"/>
       <use xlink:href="#DejaVuSans-2e" transform="translate(63.623047 0)"/>
       <use xlink:href="#DejaVuSans-30" transform="translate(95.410156 0)"/>
      </g>
     </g>
    </g>
    <g id="ytick_2">
     <g id="line2d_15">
      <path d="M 74.428632 206.897219 
L 817.468632 206.897219 
" clip-path="url(#p83e0887ee8)" style="fill: none; stroke-dasharray: 1.85,0.8; stroke-dashoffset: 0; stroke: #0485d1; stroke-opacity: 0.2; stroke-width: 0.5"/>
     </g>
     <g id="line2d_16">
      <g>
       <use xlink:href="#m04503f0756" x="74.428632" y="206.897219" style="stroke: #000000; stroke-width: 0.8"/>
      </g>
     </g>
     <g id="text_2">
      <!-- 0.5 -->
      <g transform="translate(35.941757 215.2555) scale(0.22 -0.22)">
       <defs>
        <path id="DejaVuSans-35" d="M 691 4666 
L 3169 4666 
L 3169 4134 
L 1269 4134 
L 1269 2991 
Q 1406 3038 1543 3061 
Q 1681 3084 1819 3084 
Q 2600 3084 3056 2656 
Q 3513 2228 3513 1497 
Q 3513 744 3044 326 
Q 2575 -91 1722 -91 
Q 1428 -91 1123 -41 
Q 819 9 494 109 
L 494 744 
Q 775 591 1075 516 
Q 1375 441 1709 441 
Q 2250 441 2565 725 
Q 2881 1009 2881 1497 
Q 2881 1984 2565 2268 
Q 2250 2553 1709 2553 
Q 1456 2553 1204 2497 
Q 953 2441 691 2322 
L 691 4666 
z
" transform="scale(0.015625)"/>
       </defs>
       <use xlink:href="#DejaVuSans-30"/>
       <use xlink:href="#DejaVuSans-2e" transform="translate(63.623047 0)"/>
       <use xlink:href="#DejaVuSans-35" transform="translate(95.410156 0)"/>
      </g>
     </g>
    </g>
    <g id="ytick_3">
     <g id="line2d_17">
      <path d="M 74.428632 150.465213 
L 817.468632 150.465213 
" clip-path="url(#p83e0887ee8)" style="fill: none; stroke-dasharray: 1.85,0.8; stroke-dashoffset: 0; stroke: #0485d1; stroke-opacity: 0.2; stroke-width: 0.5"/>
     </g>
     <g id="line2d_18">
      <g>
       <use xlink:href="#m04503f0756" x="74.428632" y="150.465213" style="stroke: #000000; stroke-width: 0.8"/>
      </g>
     </g>
     <g id="text_3">
      <!-- 1.0 -->
      <g transform="translate(35.941757 158.823494) scale(0.22 -0.22)">
       <defs>
        <path id="DejaVuSans-31" d="M 794 531 
L 1825 531 
L 1825 4091 
L 703 3866 
L 703 4441 
L 1819 4666 
L 2450 4666 
L 2450 531 
L 3481 531 
L 3481 0 
L 794 0 
L 794 531 
z
" transform="scale(0.015625)"/>
       </defs>
       <use xlink:href="#DejaVuSans-31"/>
       <use xlink:href="#DejaVuSans-2e" transform="translate(63.623047 0)"/>
       <use xlink:href="#DejaVuSans-30" transform="translate(95.410156 0)"/>
      </g>
     </g>
    </g>
    <g id="ytick_4">
     <g id="line2d_19">
      <path d="M 74.428632 94.033207 
L 817.468632 94.033207 
" clip-path="url(#p83e0887ee8)" style="fill: none; stroke-dasharray: 1.85,0.8; stroke-dashoffset: 0; stroke: #0485d1; stroke-opacity: 0.2; stroke-width: 0.5"/>
     </g>
     <g id="line2d_20">
      <g>
       <use xlink:href="#m04503f0756" x="74.428632" y="94.033207" style="stroke: #000000; stroke-width: 0.8"/>
      </g>
     </g>
     <g id="text_4">
      <!-- 1.5 -->
      <g transform="translate(35.941757 102.391488) scale(0.22 -0.22)">
       <use xlink:href="#DejaVuSans-31"/>
       <use xlink:href="#DejaVuSans-2e" transform="translate(63.623047 0)"/>
       <use xlink:href="#DejaVuSans-35" transform="translate(95.410156 0)"/>
      </g>
     </g>
    </g>
    <g id="text_5">
     <!-- Normalized $|E(z)|^2$ -->
     <g transform="translate(27.360257 240.286701) rotate(-90) scale(0.18326 -0.18326)">
      <defs>
       <path id="DejaVuSans-4e" d="M 628 4666 
L 1478 4666 
L 3547 763 
L 3547 4666 
L 4159 4666 
L 4159 0 
L 3309 0 
L 1241 3903 
L 1241 0 
L 628 0 
L 628 4666 
z
" transform="scale(0.015625)"/>
       <path id="DejaVuSans-6f" d="M 1959 3097 
Q 1497 3097 1228 2736 
Q 959 2375 959 1747 
Q 959 1119 1226 758 
Q 1494 397 1959 397 
Q 2419 397 2687 759 
Q 2956 1122 2956 1747 
Q 2956 2369 2687 2733 
Q 2419 3097 1959 3097 
z
M 1959 3584 
Q 2709 3584 3137 3096 
Q 3566 2609 3566 1747 
Q 3566 888 3137 398 
Q 2709 -91 1959 -91 
Q 1206 -91 779 398 
Q 353 888 353 1747 
Q 353 2609 779 3096 
Q 1206 3584 1959 3584 
z
" transform="scale(0.015625)"/>
       <path id="DejaVuSans-72" d="M 2631 2963 
Q 2534 3019 2420 3045 
Q 2306 3072 2169 3072 
Q 1681 3072 1420 2755 
Q 1159 2438 1159 1844 
L 1159 0 
L 581 0 
L 581 3500 
L 1159 3500 
L 1159 2956 
Q 1341 3275 1631 3429 
Q 1922 3584 2338 3584 
Q 2397 3584 2469 3576 
Q 2541 3569 2628 3553 
L 2631 2963 
z
" transform="scale(0.015625)"/>
       <path id="DejaVuSans-6d" d="M 3328 2828 
Q 3544 3216 3844 3400 
Q 4144 3584 4550 3584 
Q 5097 3584 5394 3201 
Q 5691 2819 5691 2113 
L 5691 0 
L 5113 0 
L 5113 2094 
Q 5113 2597 4934 2840 
Q 4756 3084 4391 3084 
Q 3944 3084 3684 2787 
Q 3425 2491 3425 1978 
L 3425 0 
L 2847 0 
L 2847 2094 
Q 2847 2600 2669 2842 
Q 2491 3084 2119 3084 
Q 1678 3084 1418 2786 
Q 1159 2488 1159 1978 
L 1159 0 
L 581 0 
L 581 3500 
L 1159 3500 
L 1159 2956 
Q 1356 3278 1631 3431 
Q 1906 3584 2284 3584 
Q 2666 3584 2933 3390 
Q 3200 3197 3328 2828 
z
" transform="scale(0.015625)"/>
       <path id="DejaVuSans-61" d="M 2194 1759 
Q 1497 1759 1228 1600 
Q 959 1441 959 1056 
Q 959 750 1161 570 
Q 1363 391 1709 391 
Q 2188 391 2477 730 
Q 2766 1069 2766 1631 
L 2766 1759 
L 2194 1759 
z
M 3341 1997 
L 3341 0 
L 2766 0 
L 2766 531 
Q 2569 213 2275 61 
Q 1981 -91 1556 -91 
Q 1019 -91 701 211 
Q 384 513 384 1019 
Q 384 1609 779 1909 
Q 1175 2209 1959 2209 
L 2766 2209 
L 2766 2266 
Q 2766 2663 2505 2880 
Q 2244 3097 1772 3097 
Q 1472 3097 1187 3025 
Q 903 2953 641 2809 
L 641 3341 
Q 956 3463 1253 3523 
Q 1550 3584 1831 3584 
Q 2591 3584 2966 3190 
Q 3341 2797 3341 1997 
z
" transform="scale(0.015625)"/>
       <path id="DejaVuSans-6c" d="M 603 4863 
L 1178 4863 
L 1178 0 
L 603 0 
L 603 4863 
z
" transform="scale(0.015625)"/>
       <path id="DejaVuSans-69" d="M 603 3500 
L 1178 3500 
L 1178 0 
L 603 0 
L 603 3500 
z
M 603 4863 
L 1178 4863 
L 1178 4134 
L 603 4134 
L 603 4863 
z
" transform="scale(0.015625)"/>
       <path id="DejaVuSans-7a" d="M 353 3500 
L 3084 3500 
L 3084 2975 
L 922 459 
L 3084 459 
L 3084 0 
L 275 0 
L 275 525 
L 2438 3041 
L 353 3041 
L 353 3500 
z
" transform="scale(0.015625)"/>
       <path id="DejaVuSans-65" d="M 3597 1894 
L 3597 1613 
L 953 1613 
Q 991 1019 1311 708 
Q 1631 397 2203 397 
Q 2534 397 2845 478 
Q 3156 559 3463 722 
L 3463 178 
Q 3153 47 2828 -22 
Q 2503 -91 2169 -91 
Q 1331 -91 842 396 
Q 353 884 353 1716 
Q 353 2575 817 3079 
Q 1281 3584 2069 3584 
Q 2775 3584 3186 3129 
Q 3597 2675 3597 1894 
z
M 3022 2063 
Q 3016 2534 2758 2815 
Q 2500 3097 2075 3097 
Q 1594 3097 1305 2825 
Q 1016 2553 972 2059 
L 3022 2063 
z
" transform="scale(0.015625)"/>
       <path id="DejaVuSans-64" d="M 2906 2969 
L 2906 4863 
L 3481 4863 
L 3481 0 
L 2906 0 
L 2906 525 
Q 2725 213 2448 61 
Q 2172 -91 1784 -91 
Q 1150 -91 751 415 
Q 353 922 353 1747 
Q 353 2572 751 3078 
Q 1150 3584 1784 3584 
Q 2172 3584 2448 3432 
Q 2725 3281 2906 2969 
z
M 947 1747 
Q 947 1113 1208 752 
Q 1469 391 1925 391 
Q 2381 391 2643 752 
Q 2906 1113 2906 1747 
Q 2906 2381 2643 2742 
Q 2381 3103 1925 3103 
Q 1469 3103 1208 2742 
Q 947 2381 947 1747 
z
" transform="scale(0.015625)"/>
       <path id="DejaVuSans-20" transform="scale(0.015625)"/>
       <path id="Cmsy10-6a" d="M 763 -1484 
L 763 4684 
Q 763 4734 800 4767 
Q 838 4800 891 4800 
Q 938 4800 978 4767 
Q 1019 4734 1019 4684 
L 1019 -1484 
Q 1019 -1534 978 -1567 
Q 938 -1600 891 -1600 
Q 838 -1600 800 -1567 
Q 763 -1534 763 -1484 
z
" transform="scale(0.015625)"/>
       <path id="Cmmi10-45" d="M 300 0 
Q 238 0 238 84 
Q 241 100 250 139 
Q 259 178 276 201 
Q 294 225 319 225 
Q 709 225 863 269 
Q 947 297 984 441 
L 1863 3956 
Q 1875 4019 1875 4044 
Q 1875 4113 1797 4122 
Q 1678 4147 1338 4147 
Q 1275 4147 1275 4231 
Q 1278 4247 1287 4286 
Q 1297 4325 1314 4348 
Q 1331 4372 1356 4372 
L 4825 4372 
Q 4891 4372 4891 4288 
L 4738 2963 
Q 4738 2947 4714 2926 
Q 4691 2906 4672 2906 
L 4616 2906 
Q 4550 2906 4550 2988 
Q 4588 3300 4588 3450 
Q 4588 3706 4500 3848 
Q 4413 3991 4267 4053 
Q 4122 4116 3945 4131 
Q 3769 4147 3481 4147 
L 2753 4147 
Q 2578 4147 2522 4117 
Q 2466 4088 2419 3928 
L 2034 2381 
L 2534 2381 
Q 2859 2381 3025 2426 
Q 3191 2472 3287 2615 
Q 3384 2759 3463 3072 
Q 3469 3094 3486 3111 
Q 3503 3128 3525 3128 
L 3584 3128 
Q 3647 3128 3647 3047 
L 3250 1466 
Q 3238 1409 3188 1409 
L 3128 1409 
Q 3066 1409 3066 1491 
Q 3128 1747 3128 1869 
Q 3128 2056 2959 2106 
Q 2791 2156 2509 2156 
L 1978 2156 
L 1544 416 
Q 1516 338 1516 275 
Q 1516 225 1734 225 
L 2509 225 
Q 2972 225 3259 297 
Q 3547 369 3736 526 
Q 3925 684 4062 928 
Q 4200 1172 4397 1638 
Q 4409 1678 4453 1678 
L 4513 1678 
Q 4538 1678 4556 1656 
Q 4575 1634 4575 1606 
Q 4575 1594 4569 1581 
L 3909 38 
Q 3897 0 3859 0 
L 300 0 
z
" transform="scale(0.015625)"/>
       <path id="Cmr10-28" d="M 1984 -1588 
Q 1628 -1306 1370 -942 
Q 1113 -578 948 -165 
Q 784 247 703 697 
Q 622 1147 622 1600 
Q 622 2059 703 2509 
Q 784 2959 951 3375 
Q 1119 3791 1378 4153 
Q 1638 4516 1984 4788 
Q 1984 4800 2016 4800 
L 2075 4800 
Q 2094 4800 2109 4783 
Q 2125 4766 2125 4744 
Q 2125 4716 2113 4703 
Q 1800 4397 1592 4047 
Q 1384 3697 1257 3301 
Q 1131 2906 1075 2482 
Q 1019 2059 1019 1600 
Q 1019 -434 2106 -1491 
Q 2125 -1509 2125 -1544 
Q 2125 -1559 2108 -1579 
Q 2091 -1600 2075 -1600 
L 2016 -1600 
Q 1984 -1600 1984 -1588 
z
" transform="scale(0.015625)"/>
       <path id="Cmmi10-7a" d="M 313 -72 
Q 263 -72 263 -13 
Q 263 19 275 31 
Q 447 328 689 598 
Q 931 869 1239 1145 
Q 1547 1422 1858 1700 
Q 2169 1978 2363 2194 
L 2338 2194 
Q 2197 2194 1925 2284 
Q 1653 2375 1497 2375 
Q 1328 2375 1168 2301 
Q 1009 2228 966 2075 
Q 956 2028 916 2028 
L 838 2028 
Q 788 2028 788 2094 
L 788 2113 
Q 838 2300 952 2462 
Q 1066 2625 1233 2726 
Q 1400 2828 1581 2828 
Q 1709 2828 1793 2770 
Q 1878 2713 1990 2591 
Q 2103 2469 2173 2416 
Q 2244 2363 2350 2363 
Q 2491 2363 2602 2491 
Q 2713 2619 2822 2809 
Q 2841 2828 2869 2828 
L 2944 2828 
Q 2966 2828 2980 2812 
Q 2994 2797 2994 2772 
Q 2994 2750 2981 2731 
Q 2809 2434 2579 2176 
Q 2350 1919 1979 1586 
Q 1609 1253 1354 1023 
Q 1100 794 878 550 
Q 928 563 1013 563 
Q 1169 563 1439 473 
Q 1709 384 1856 384 
Q 2016 384 2178 453 
Q 2341 522 2459 647 
Q 2578 772 2619 934 
Q 2634 978 2669 978 
L 2747 978 
Q 2772 978 2787 958 
Q 2803 938 2803 916 
Q 2803 909 2797 897 
Q 2738 653 2591 433 
Q 2444 213 2230 70 
Q 2016 -72 1772 -72 
Q 1650 -72 1565 -15 
Q 1481 41 1367 164 
Q 1253 288 1181 342 
Q 1109 397 1006 397 
Q 688 397 434 -50 
Q 413 -72 391 -72 
L 313 -72 
z
" transform="scale(0.015625)"/>
       <path id="Cmr10-29" d="M 416 -1600 
Q 359 -1600 359 -1544 
Q 359 -1516 372 -1503 
Q 1466 -434 1466 1600 
Q 1466 3634 384 4691 
Q 359 4706 359 4744 
Q 359 4766 376 4783 
Q 394 4800 416 4800 
L 475 4800 
Q 494 4800 506 4788 
Q 966 4425 1272 3906 
Q 1578 3388 1720 2800 
Q 1863 2213 1863 1600 
Q 1863 1147 1786 708 
Q 1709 269 1542 -157 
Q 1375 -584 1119 -945 
Q 863 -1306 506 -1588 
Q 494 -1600 475 -1600 
L 416 -1600 
z
" transform="scale(0.015625)"/>
       <path id="Cmr10-32" d="M 319 0 
L 319 172 
Q 319 188 331 206 
L 1325 1306 
Q 1550 1550 1690 1715 
Q 1831 1881 1968 2097 
Q 2106 2313 2186 2536 
Q 2266 2759 2266 3009 
Q 2266 3272 2169 3511 
Q 2072 3750 1880 3894 
Q 1688 4038 1416 4038 
Q 1138 4038 916 3870 
Q 694 3703 603 3438 
Q 628 3444 672 3444 
Q 816 3444 917 3347 
Q 1019 3250 1019 3097 
Q 1019 2950 917 2848 
Q 816 2747 672 2747 
Q 522 2747 420 2851 
Q 319 2956 319 3097 
Q 319 3338 409 3548 
Q 500 3759 670 3923 
Q 841 4088 1055 4175 
Q 1269 4263 1509 4263 
Q 1875 4263 2190 4108 
Q 2506 3953 2690 3670 
Q 2875 3388 2875 3009 
Q 2875 2731 2753 2481 
Q 2631 2231 2440 2026 
Q 2250 1822 1953 1562 
Q 1656 1303 1563 1216 
L 838 519 
L 1453 519 
Q 1906 519 2211 526 
Q 2516 534 2534 550 
Q 2609 631 2688 1141 
L 2875 1141 
L 2694 0 
L 319 0 
z
" transform="scale(0.015625)"/>
      </defs>
      <use xlink:href="#DejaVuSans-4e" transform="translate(0 0.109375)"/>
      <use xlink:href="#DejaVuSans-6f" transform="translate(74.804688 0.109375)"/>
      <use xlink:href="#DejaVuSans-72" transform="translate(135.986328 0.109375)"/>
      <use xlink:href="#DejaVuSans-6d" transform="translate(177.099609 0.109375)"/>
      <use xlink:href="#DejaVuSans-61" transform="translate(274.511719 0.109375)"/>
      <use xlink:href="#DejaVuSans-6c" transform="translate(335.791016 0.109375)"/>
      <use xlink:href="#DejaVuSans-69" transform="translate(363.574219 0.109375)"/>
      <use xlink:href="#DejaVuSans-7a" transform="translate(391.357422 0.109375)"/>
      <use xlink:href="#DejaVuSans-65" transform="translate(443.847656 0.109375)"/>
      <use xlink:href="#DejaVuSans-64" transform="translate(505.371094 0.109375)"/>
      <use xlink:href="#DejaVuSans-20" transform="translate(568.847656 0.109375)"/>
      <use xlink:href="#Cmsy10-6a" transform="translate(600.634766 0.109375)"/>
      <use xlink:href="#Cmmi10-45" transform="translate(628.320312 0.109375)"/>
      <use xlink:href="#Cmr10-28" transform="translate(702.099609 0.109375)"/>
      <use xlink:href="#Cmmi10-7a" transform="translate(740.917969 0.109375)"/>
      <use xlink:href="#Cmr10-29" transform="translate(787.402344 0.109375)"/>
      <use xlink:href="#Cmsy10-6a" transform="translate(826.220703 0.109375)"/>
      <use xlink:href="#Cmr10-32" transform="translate(858.370391 38.373438) scale(0.7)"/>
     </g>
    </g>
   </g>
   <g id="line2d_21">
    <path d="M 108.240689 262.723231 
L 108.728345 263.209316 
L 109.140977 263.328055 
L 109.516097 263.202972 
L 109.928729 262.809369 
L 110.416385 261.99979 
L 110.979065 260.60567 
L 111.654281 258.291181 
L 112.442033 254.726479 
L 113.342321 249.553117 
L 114.392657 242.115563 
L 115.59304 231.916376 
L 116.980984 218.139196 
L 118.669024 199.06057 
L 121.008416 169.835594 
L 125.998825 106.87121 
L 127.760146 87.784442 
L 129.185977 74.570264 
L 130.402127 65.206685 
L 131.450532 58.711588 
L 132.328846 54.542612 
L 132.846546 53.03037 
L 133.250999 52.428226 
L 133.558384 52.312649 
L 133.833412 52.460012 
L 134.156975 52.93613 
L 134.561428 53.989241 
L 135.06295 55.994211 
L 135.661541 59.380163 
L 136.373379 64.764651 
L 137.235492 73.063304 
L 138.750909 89.947021 
L 140.610739 113.322995 
L 143.641572 154.721343 
L 146.810171 197.099136 
L 148.670001 219.071963 
L 150.116535 233.760265 
L 151.356422 244.29539 
L 152.458543 251.861611 
L 153.422899 256.98131 
L 154.24949 260.197999 
L 154.938316 262.027054 
L 155.489376 262.923364 
L 155.902672 263.262074 
L 156.315967 263.313895 
L 156.66038 263.137813 
L 157.073676 262.663854 
L 157.555854 261.750329 
L 158.170857 260.030319 
L 158.873717 257.328117 
L 159.664435 253.397276 
L 160.630868 247.416475 
L 161.773016 238.897071 
L 163.266595 225.915471 
L 165.726606 202.158906 
L 168.186617 179.13576 
L 169.592338 167.904226 
L 170.734486 160.40277 
L 171.700919 155.429432 
L 172.491637 152.402006 
L 173.194498 150.548134 
L 173.721643 149.692581 
L 174.160931 149.33589 
L 174.512361 149.285336 
L 174.863791 149.443746 
L 175.303079 149.934654 
L 175.830224 150.949372 
L 176.445227 152.709088 
L 177.148087 155.454824 
L 178.026663 159.928507 
L 178.993096 166.069794 
L 180.223101 175.469758 
L 181.804537 189.516169 
L 186.868269 236.137558 
L 188.235578 245.798855 
L 189.382353 252.422219 
L 190.396807 257.044993 
L 191.278942 260.063589 
L 192.028756 261.86934 
L 192.64625 262.820414 
L 193.175531 263.245738 
L 193.616598 263.323826 
L 194.013559 263.179062 
L 194.454626 262.779698 
L 194.983907 261.970683 
L 195.601401 260.576503 
L 196.307108 258.399121 
L 197.145136 255.025945 
L 198.11862 250.119097 
L 199.321158 242.817561 
L 200.867279 231.898511 
L 203.844994 208.771932 
L 205.849225 194.137922 
L 207.223555 185.615419 
L 208.311566 180.116768 
L 209.227786 176.500183 
L 210.029478 174.172955 
L 210.716643 172.836324 
L 211.232017 172.245045 
L 211.690127 172.019831 
L 212.090973 172.05591 
L 212.491819 172.309446 
L 212.949929 172.863878 
L 213.522566 173.948637 
L 214.209731 175.810388 
L 215.261743 179.505363 
L 216.625357 185.16206 
L 218.244648 192.94199 
L 220.290068 203.969977 
L 227.193362 242.228866 
L 228.812654 249.449953 
L 230.176267 254.529942 
L 231.284203 257.879675 
L 232.306914 260.295553 
L 233.159172 261.784876 
L 233.926205 262.703661 
L 234.608012 263.178214 
L 235.204592 263.326519 
L 235.801173 263.224829 
L 236.397754 262.873675 
L 237.079561 262.169308 
L 237.846594 260.996424 
L 238.698852 259.232858 
L 239.636337 256.755263 
L 240.790683 253.00555 
L 242.202876 247.61802 
L 244.385357 238.279315 
L 247.338125 225.787918 
L 248.814509 220.507067 
L 249.96994 217.13572 
L 250.932799 214.94506 
L 251.767277 213.552376 
L 252.473374 212.763907 
L 253.11528 212.368057 
L 253.692996 212.277426 
L 254.20652 212.408997 
L 254.784236 212.794333 
L 255.426142 213.512557 
L 256.132239 214.644924 
L 256.966717 216.422829 
L 257.929576 219.019609 
L 259.085007 222.809139 
L 262.116384 234.050404 
L 265.295513 245.565487 
L 267.150005 251.48393 
L 268.633598 255.536524 
L 269.90525 258.417965 
L 271.017945 260.43308 
L 272.024669 261.816686 
L 272.925422 262.682917 
L 273.720204 263.146901 
L 274.462001 263.321823 
L 275.169224 263.255136 
L 275.884422 262.95698 
L 276.661812 262.375093 
L 277.501393 261.456945 
L 278.465357 260.056422 
L 279.584798 258.015155 
L 280.953004 255.022383 
L 282.81874 250.347387 
L 291.575497 227.729492 
L 293.103189 224.648114 
L 294.412639 222.448771 
L 295.612969 220.841575 
L 296.704177 219.749706 
L 297.686265 219.084269 
L 298.559232 218.753197 
L 299.432199 218.671185 
L 300.305165 218.839151 
L 301.178132 219.255216 
L 302.051099 219.914719 
L 303.033187 220.938347 
L 304.124396 222.408243 
L 305.324725 224.399385 
L 306.743296 227.201399 
L 308.48923 231.199315 
L 310.780768 237.079691 
L 316.455053 251.932161 
L 318.405201 256.239118 
L 319.916527 259.088126 
L 321.103998 260.894177 
L 322.129541 262.082821 
L 323.047132 262.822214 
L 323.856771 263.2047 
L 324.612435 263.326296 
L 325.368098 263.218442 
L 326.123761 262.882962 
L 326.9334 262.277452 
L 327.850992 261.298316 
L 328.876535 259.86514 
L 330.117981 257.714623 
L 331.629308 254.618876 
L 333.970163 249.238976 
L 337.041128 241.551804 
L 340.379133 233.352427 
L 342.248416 229.317127 
L 343.850658 226.381369 
L 345.18586 224.389437 
L 346.387542 222.996793 
L 347.455703 222.102267 
L 348.390345 221.597246 
L 349.324986 221.358317 
L 350.126107 221.367727 
L 350.927228 221.574853 
L 351.86187 222.063682 
L 352.796511 222.812618 
L 353.864673 223.974564 
L 355.066355 225.648259 
L 356.401557 227.92093 
L 358.003799 231.139836 
L 360.006602 235.740029 
L 363.211087 243.783843 
L 366.282051 251.304989 
L 368.151334 255.341103 
L 369.753576 258.277777 
L 371.088778 260.270601 
L 372.29046 261.664128 
L 373.358622 262.559487 
L 374.30208 263.070055 
L 375.172965 263.299628 
L 376.04385 263.291734 
L 376.914734 263.046551 
L 377.785619 262.569588 
L 378.729078 261.803874 
L 379.817684 260.624772 
L 381.124011 258.848773 
L 382.720633 256.269435 
L 385.623582 251.047477 
L 387.873367 247.219144 
L 389.324842 245.151852 
L 390.558595 243.761136 
L 391.647201 242.867738 
L 392.59066 242.37249 
L 393.461545 242.157562 
L 394.332429 242.180246 
L 395.192481 242.435063 
L 396.48904 243.102318 
L 397.90908 244.100986 
L 399.452603 245.470225 
L 401.243089 247.366564 
L 403.527502 250.129072 
L 410.380741 258.6463 
L 412.171227 260.412629 
L 413.732008 261.655246 
L 415.154006 262.515379 
L 416.418003 263.03336 
L 417.603001 263.28501 
L 418.787999 263.2994 
L 419.972997 263.075933 
L 421.157994 262.623891 
L 422.500992 261.859338 
L 424.001989 260.736831 
L 425.976986 258.953223 
L 431.269976 254.004915 
L 432.849973 252.924153 
L 434.19297 252.272236 
L 435.377968 251.930857 
L 436.562966 251.823838 
L 437.764259 251.951869 
L 439.436856 252.363452 
L 441.219131 253.034956 
L 443.193344 254.021757 
L 445.578851 255.475671 
L 447.426935 256.81585 
L 454.203242 262.009254 
L 455.709088 262.741401 
L 457.078038 263.160345 
L 458.378542 263.318439 
L 459.610598 263.24501 
L 460.911101 262.935606 
L 462.280052 262.369664 
L 463.785898 261.499873 
L 465.633982 260.163256 
L 467.885797 258.267644 
L 471.177922 255.153618 
L 474.976528 251.629539 
L 477.129072 249.934285 
L 478.901755 248.809115 
L 480.547817 248.032833 
L 482.06726 247.573507 
L 483.460082 247.383378 
L 484.852904 247.419853 
L 486.245726 247.681894 
L 487.638548 248.162042 
L 489.157991 248.918375 
L 490.804053 249.982288 
L 492.829977 251.578886 
L 495.489001 254.000616 
L 501.44015 259.528914 
L 503.466073 261.054469 
L 505.27528 262.136543 
L 506.843422 262.822561 
L 508.254749 263.19785 
L 509.587669 263.320466 
L 510.920589 263.211138 
L 512.253509 262.875606 
L 513.664836 262.293545 
L 515.311385 261.365436 
L 517.428375 259.895226 
L 522.681649 256.130303 
L 524.328197 255.278565 
L 525.817931 254.756173 
L 527.150851 254.518417 
L 528.610986 254.489931 
L 530.491403 254.665272 
L 532.470788 255.086192 
L 534.549143 255.762719 
L 536.924406 256.775294 
L 540.190392 258.433328 
L 545.732672 261.267939 
L 548.206904 262.262767 
L 550.285259 262.868897 
L 552.264645 263.213197 
L 554.145061 263.311157 
L 556.025478 263.180548 
L 557.986291 262.809147 
L 560.216381 262.145697 
L 563.63931 260.85514 
L 567.165963 259.595675 
L 569.344191 259.053656 
L 571.263105 258.803694 
L 573.105607 258.790648 
L 575.687993 259.019692 
L 578.505142 259.490859 
L 582.026579 260.320907 
L 591.651838 262.7329 
L 594.468987 263.135305 
L 597.051374 263.290657 
L 599.633761 263.225722 
L 602.333529 262.929421 
L 605.268059 262.379612 
L 609.456868 261.335909 
L 612.774372 260.613114 
L 615.198702 260.309457 
L 617.431637 260.252189 
L 620.43197 260.43795 
L 624.036212 260.886037 
L 629.17669 261.780242 
L 635.380714 262.814793 
L 639.111785 263.19815 
L 642.148704 263.284037 
L 645.185622 263.138644 
L 648.743155 262.729651 
L 657.246526 261.647877 
L 660.283445 261.554442 
L 663.704994 261.692579 
L 668.880185 262.123429 
L 680.166619 263.134832 
L 684.530962 263.251694 
L 688.724154 263.131983 
L 694.800003 262.697349 
L 700.447976 262.372473 
L 704.555593 262.364247 
L 711.535387 262.655356 
L 723.197 263.150841 
L 729.283628 263.151516 
L 752.889249 262.877433 
L 774.555718 263.007462 
L 783.694086 262.93599 
L 783.694086 262.93599 
" clip-path="url(#p83e0887ee8)" style="fill: none; stroke: #aa23ff; stroke-opacity: 0.97; stroke-width: 3; stroke-linecap: square"/>
   </g>
   <g id="LineCollection_1">
    <path d="M 132.037639 263.328096 
L 132.037639 201.254018 
" clip-path="url(#p83e0887ee8)" style="fill: none; stroke-dasharray: 2.22,0.96; stroke-dashoffset: 0; stroke: #01f9c6; stroke-opacity: 0.75; stroke-width: 0.6"/>
    <path d="M 157.555854 263.328096 
L 157.555854 201.254018 
" clip-path="url(#p83e0887ee8)" style="fill: none; stroke-dasharray: 2.22,0.96; stroke-dashoffset: 0; stroke: #01f9c6; stroke-opacity: 0.75; stroke-width: 0.6"/>
    <path d="M 197.145136 263.328096 
L 197.145136 201.254018 
" clip-path="url(#p83e0887ee8)" style="fill: none; stroke-dasharray: 2.22,0.96; stroke-dashoffset: 0; stroke: #01f9c6; stroke-opacity: 0.75; stroke-width: 0.6"/>
    <path d="M 239.892014 263.328096 
L 239.892014 201.254018 
" clip-path="url(#p83e0887ee8)" style="fill: none; stroke-dasharray: 2.22,0.96; stroke-dashoffset: 0; stroke: #01f9c6; stroke-opacity: 0.75; stroke-width: 0.6"/>
    <path d="M 275.044841 263.328096 
L 275.044841 201.254018 
" clip-path="url(#p83e0887ee8)" style="fill: none; stroke-dasharray: 2.22,0.96; stroke-dashoffset: 0; stroke: #01f9c6; stroke-opacity: 0.75; stroke-width: 0.6"/>
    <path d="M 317.109778 263.328096 
L 317.109778 201.254018 
" clip-path="url(#p83e0887ee8)" style="fill: none; stroke-dasharray: 2.22,0.96; stroke-dashoffset: 0; stroke: #01f9c6; stroke-opacity: 0.75; stroke-width: 0.6"/>
    <path d="M 373.358622 263.328096 
L 373.358622 201.254018 
" clip-path="url(#p83e0887ee8)" style="fill: none; stroke-dasharray: 2.22,0.96; stroke-dashoffset: 0; stroke: #01f9c6; stroke-opacity: 0.75; stroke-width: 0.6"/>
    <path d="M 413.653008 263.328096 
L 413.653008 201.254018 
" clip-path="url(#p83e0887ee8)" style="fill: none; stroke-dasharray: 2.22,0.96; stroke-dashoffset: 0; stroke: #01f9c6; stroke-opacity: 0.75; stroke-width: 0.6"/>
    <path d="M 445.578851 263.328096 
L 445.578851 201.254018 
" clip-path="url(#p83e0887ee8)" style="fill: none; stroke-dasharray: 2.22,0.96; stroke-dashoffset: 0; stroke: #01f9c6; stroke-opacity: 0.75; stroke-width: 0.6"/>
    <path d="M 504.099174 263.328096 
L 504.099174 201.254018 
" clip-path="url(#p83e0887ee8)" style="fill: none; stroke-dasharray: 2.22,0.96; stroke-dashoffset: 0; stroke: #01f9c6; stroke-opacity: 0.75; stroke-width: 0.6"/>
    <path d="M 557.312078 263.328096 
L 557.312078 201.254018 
" clip-path="url(#p83e0887ee8)" style="fill: none; stroke-dasharray: 2.22,0.96; stroke-dashoffset: 0; stroke: #01f9c6; stroke-opacity: 0.75; stroke-width: 0.6"/>
    <path d="M 608.085208 263.328096 
L 608.085208 201.254018 
" clip-path="url(#p83e0887ee8)" style="fill: none; stroke-dasharray: 2.22,0.96; stroke-dashoffset: 0; stroke: #01f9c6; stroke-opacity: 0.75; stroke-width: 0.6"/>
    <path d="M 635.380714 263.328096 
L 635.380714 201.254018 
" clip-path="url(#p83e0887ee8)" style="fill: none; stroke-dasharray: 2.22,0.96; stroke-dashoffset: 0; stroke: #01f9c6; stroke-opacity: 0.75; stroke-width: 0.6"/>
    <path d="M 679.05414 263.328096 
L 679.05414 201.254018 
" clip-path="url(#p83e0887ee8)" style="fill: none; stroke-dasharray: 2.22,0.96; stroke-dashoffset: 0; stroke: #01f9c6; stroke-opacity: 0.75; stroke-width: 0.6"/>
    <path d="M 726.456457 263.328096 
L 726.456457 201.254018 
" clip-path="url(#p83e0887ee8)" style="fill: none; stroke-dasharray: 2.22,0.96; stroke-dashoffset: 0; stroke: #01f9c6; stroke-opacity: 0.75; stroke-width: 0.6"/>
    <path d="M 779.448147 263.328096 
L 779.448147 201.254018 
" clip-path="url(#p83e0887ee8)" style="fill: none; stroke-dasharray: 2.22,0.96; stroke-dashoffset: 0; stroke: #01f9c6; stroke-opacity: 0.75; stroke-width: 0.6"/>
   </g>
   <g id="LineCollection_2">
    <path d="M 119.456776 263.328096 
L 119.456776 201.254018 
" clip-path="url(#p83e0887ee8)" style="fill: none; stroke-dasharray: 2.22,0.96; stroke-dashoffset: 0; stroke: #36013f; stroke-opacity: 0.75; stroke-width: 0.6"/>
    <path d="M 136.891079 263.328096 
L 136.891079 201.254018 
" clip-path="url(#p83e0887ee8)" style="fill: none; stroke-dasharray: 2.22,0.96; stroke-dashoffset: 0; stroke: #36013f; stroke-opacity: 0.75; stroke-width: 0.6"/>
    <path d="M 183.913119 263.328096 
L 183.913119 201.254018 
" clip-path="url(#p83e0887ee8)" style="fill: none; stroke-dasharray: 2.22,0.96; stroke-dashoffset: 0; stroke: #36013f; stroke-opacity: 0.75; stroke-width: 0.6"/>
    <path d="M 214.324259 263.328096 
L 214.324259 201.254018 
" clip-path="url(#p83e0887ee8)" style="fill: none; stroke-dasharray: 2.22,0.96; stroke-dashoffset: 0; stroke: #36013f; stroke-opacity: 0.75; stroke-width: 0.6"/>
    <path d="M 259.149197 263.328096 
L 259.149197 201.254018 
" clip-path="url(#p83e0887ee8)" style="fill: none; stroke-dasharray: 2.22,0.96; stroke-dashoffset: 0; stroke: #36013f; stroke-opacity: 0.75; stroke-width: 0.6"/>
    <path d="M 284.37352 263.328096 
L 284.37352 201.254018 
" clip-path="url(#p83e0887ee8)" style="fill: none; stroke-dasharray: 2.22,0.96; stroke-dashoffset: 0; stroke: #36013f; stroke-opacity: 0.75; stroke-width: 0.6"/>
    <path d="M 333.302562 263.328096 
L 333.302562 201.254018 
" clip-path="url(#p83e0887ee8)" style="fill: none; stroke-dasharray: 2.22,0.96; stroke-dashoffset: 0; stroke: #36013f; stroke-opacity: 0.75; stroke-width: 0.6"/>
    <path d="M 395.13074 263.328096 
L 395.13074 201.254018 
" clip-path="url(#p83e0887ee8)" style="fill: none; stroke-dasharray: 2.22,0.96; stroke-dashoffset: 0; stroke: #36013f; stroke-opacity: 0.75; stroke-width: 0.6"/>
    <path d="M 437.352965 263.328096 
L 437.352965 201.254018 
" clip-path="url(#p83e0887ee8)" style="fill: none; stroke-dasharray: 2.22,0.96; stroke-dashoffset: 0; stroke: #36013f; stroke-opacity: 0.75; stroke-width: 0.6"/>
    <path d="M 466.113114 263.328096 
L 466.113114 201.254018 
" clip-path="url(#p83e0887ee8)" style="fill: none; stroke-dasharray: 2.22,0.96; stroke-dashoffset: 0; stroke: #36013f; stroke-opacity: 0.75; stroke-width: 0.6"/>
    <path d="M 527.621294 263.328096 
L 527.621294 201.254018 
" clip-path="url(#p83e0887ee8)" style="fill: none; stroke-dasharray: 2.22,0.96; stroke-dashoffset: 0; stroke: #36013f; stroke-opacity: 0.75; stroke-width: 0.6"/>
    <path d="M 572.870844 263.328096 
L 572.870844 201.254018 
" clip-path="url(#p83e0887ee8)" style="fill: none; stroke-dasharray: 2.22,0.96; stroke-dashoffset: 0; stroke: #36013f; stroke-opacity: 0.75; stroke-width: 0.6"/>
    <path d="M 617.65493 263.328096 
L 617.65493 201.254018 
" clip-path="url(#p83e0887ee8)" style="fill: none; stroke-dasharray: 2.22,0.96; stroke-dashoffset: 0; stroke: #36013f; stroke-opacity: 0.75; stroke-width: 0.6"/>
    <path d="M 661.411443 263.328096 
L 661.411443 201.254018 
" clip-path="url(#p83e0887ee8)" style="fill: none; stroke-dasharray: 2.22,0.96; stroke-dashoffset: 0; stroke: #36013f; stroke-opacity: 0.75; stroke-width: 0.6"/>
    <path d="M 704.726744 263.328096 
L 704.726744 201.254018 
" clip-path="url(#p83e0887ee8)" style="fill: none; stroke-dasharray: 2.22,0.96; stroke-dashoffset: 0; stroke: #36013f; stroke-opacity: 0.75; stroke-width: 0.6"/>
    <path d="M 744.502229 263.328096 
L 744.502229 201.254018 
" clip-path="url(#p83e0887ee8)" style="fill: none; stroke-dasharray: 2.22,0.96; stroke-dashoffset: 0; stroke: #36013f; stroke-opacity: 0.75; stroke-width: 0.6"/>
    <path d="M 783.694086 263.328096 
L 783.694086 201.254018 
" clip-path="url(#p83e0887ee8)" style="fill: none; stroke-dasharray: 2.22,0.96; stroke-dashoffset: 0; stroke: #36013f; stroke-opacity: 0.75; stroke-width: 0.6"/>
   </g>
   <g id="patch_3">
    <path d="M 74.428632 273.879403 
L 74.428632 41.76 
" style="fill: none; stroke: #bcbcbc; stroke-width: 0.8; stroke-linejoin: miter; stroke-linecap: square"/>
   </g>
   <g id="patch_4">
    <path d="M 817.468632 273.879403 
L 817.468632 41.76 
" style="fill: none; stroke: #bcbcbc; stroke-width: 0.8; stroke-linejoin: miter; stroke-linecap: square"/>
   </g>
   <g id="patch_5">
    <path d="M 74.428632 273.879403 
L 817.468632 273.879403 
" style="fill: none; stroke: #bcbcbc; stroke-width: 0.8; stroke-linejoin: miter; stroke-linecap: square"/>
   </g>
   <g id="patch_6">
    <path d="M 74.428632 41.76 
L 817.468632 41.76 
" style="fill: none; stroke: #bcbcbc; stroke-width: 0.8; stroke-linejoin: miter; stroke-linecap: square"/>
   </g>
   <g id="text_6">
    <!-- $|\vec E_{\mathrm{surface}}| = 5369$ ppm of $|\vec E_{\mathrm{inc}}|$ -->
    <g transform="translate(445.948632 111.395821) scale(0.14 -0.14)">
     <defs>
      <path id="Cmmi10-7e" d="M 1281 3809 
Q 1231 3809 1198 3846 
Q 1166 3884 1166 3938 
Q 1166 3984 1198 4023 
Q 1231 4063 1281 4063 
L 3547 4063 
Q 3378 4291 3378 4441 
Q 3378 4497 3417 4533 
Q 3456 4569 3506 4569 
Q 3613 4569 3634 4469 
Q 3697 4194 3938 4044 
Q 4000 4003 4000 3938 
Q 4000 3859 3938 3828 
Q 3575 3647 3353 3347 
Q 3328 3303 3256 3303 
Q 3209 3303 3168 3340 
Q 3128 3378 3128 3431 
Q 3128 3547 3438 3809 
L 1281 3809 
z
" transform="scale(0.015625)"/>
      <path id="Cmr10-73" d="M 213 -19 
L 213 1025 
Q 213 1075 269 1075 
L 347 1075 
Q 384 1075 397 1025 
Q 575 97 1259 97 
Q 1563 97 1767 234 
Q 1972 372 1972 659 
Q 1972 866 1812 1011 
Q 1653 1156 1434 1209 
L 1006 1294 
Q 791 1341 614 1437 
Q 438 1534 325 1695 
Q 213 1856 213 2069 
Q 213 2350 361 2529 
Q 509 2709 746 2789 
Q 984 2869 1259 2869 
Q 1588 2869 1831 2694 
L 2016 2853 
Q 2016 2869 2047 2869 
L 2094 2869 
Q 2113 2869 2128 2851 
Q 2144 2834 2144 2816 
L 2144 1978 
Q 2144 1919 2094 1919 
L 2016 1919 
Q 1959 1919 1959 1978 
Q 1959 2313 1773 2516 
Q 1588 2719 1253 2719 
Q 966 2719 755 2612 
Q 544 2506 544 2247 
Q 544 2069 695 1955 
Q 847 1841 1050 1791 
L 1484 1709 
Q 1703 1659 1892 1540 
Q 2081 1422 2192 1240 
Q 2303 1059 2303 831 
Q 2303 600 2223 429 
Q 2144 259 2001 146 
Q 1859 34 1665 -19 
Q 1472 -72 1259 -72 
Q 859 -72 575 197 
L 341 -56 
Q 341 -72 306 -72 
L 269 -72 
Q 213 -72 213 -19 
z
" transform="scale(0.015625)"/>
      <path id="Cmr10-75" d="M 691 763 
L 691 2175 
Q 691 2347 639 2423 
Q 588 2500 491 2517 
Q 394 2534 191 2534 
L 191 2759 
L 1159 2828 
L 1159 763 
Q 1159 513 1195 373 
Q 1231 234 1348 165 
Q 1466 97 1722 97 
Q 2066 97 2269 384 
Q 2472 672 2472 1038 
L 2472 2175 
Q 2472 2347 2419 2423 
Q 2366 2500 2270 2517 
Q 2175 2534 1972 2534 
L 1972 2759 
L 2938 2828 
L 2938 581 
Q 2938 413 2989 336 
Q 3041 259 3137 242 
Q 3234 225 3438 225 
L 3438 0 
L 2491 -72 
L 2491 469 
Q 2372 228 2159 78 
Q 1947 -72 1691 -72 
Q 1231 -72 961 123 
Q 691 319 691 763 
z
" transform="scale(0.015625)"/>
      <path id="Cmr10-72" d="M 166 0 
L 166 225 
Q 384 225 525 259 
Q 666 294 666 428 
L 666 2175 
Q 666 2347 614 2423 
Q 563 2500 466 2517 
Q 369 2534 166 2534 
L 166 2759 
L 1081 2828 
L 1081 2203 
Q 1184 2481 1375 2654 
Q 1566 2828 1838 2828 
Q 2028 2828 2178 2715 
Q 2328 2603 2328 2419 
Q 2328 2303 2245 2217 
Q 2163 2131 2041 2131 
Q 1922 2131 1837 2215 
Q 1753 2300 1753 2419 
Q 1753 2591 1875 2663 
L 1838 2663 
Q 1578 2663 1414 2475 
Q 1250 2288 1181 2009 
Q 1113 1731 1113 1478 
L 1113 428 
Q 1113 225 1734 225 
L 1734 0 
L 166 0 
z
" transform="scale(0.015625)"/>
      <path id="Cmr10-66" d="M 206 0 
L 206 225 
Q 422 225 562 259 
Q 703 294 703 428 
L 703 2534 
L 213 2534 
L 213 2759 
L 703 2759 
L 703 3525 
Q 703 3731 789 3911 
Q 875 4091 1020 4225 
Q 1166 4359 1355 4436 
Q 1544 4513 1747 4513 
Q 1963 4513 2136 4384 
Q 2309 4256 2309 4044 
Q 2309 3922 2226 3839 
Q 2144 3756 2022 3756 
Q 1900 3756 1814 3839 
Q 1728 3922 1728 4044 
Q 1728 4244 1900 4313 
Q 1797 4347 1716 4347 
Q 1528 4347 1395 4214 
Q 1263 4081 1197 3890 
Q 1131 3700 1131 3513 
L 1131 2759 
L 1869 2759 
L 1869 2534 
L 1153 2534 
L 1153 428 
Q 1153 297 1340 261 
Q 1528 225 1772 225 
L 1772 0 
L 206 0 
z
" transform="scale(0.015625)"/>
      <path id="Cmr10-61" d="M 256 628 
Q 256 1009 556 1248 
Q 856 1488 1276 1586 
Q 1697 1684 2075 1684 
L 2075 1947 
Q 2075 2131 1994 2304 
Q 1913 2478 1759 2589 
Q 1606 2700 1422 2700 
Q 997 2700 775 2509 
Q 897 2509 976 2417 
Q 1056 2325 1056 2203 
Q 1056 2075 965 1984 
Q 875 1894 750 1894 
Q 622 1894 531 1984 
Q 441 2075 441 2203 
Q 441 2541 747 2705 
Q 1053 2869 1422 2869 
Q 1681 2869 1943 2758 
Q 2206 2647 2373 2440 
Q 2541 2234 2541 1959 
L 2541 519 
Q 2541 394 2594 289 
Q 2647 184 2759 184 
Q 2866 184 2917 290 
Q 2969 397 2969 519 
L 2969 928 
L 3156 928 
L 3156 519 
Q 3156 375 3081 245 
Q 3006 116 2879 39 
Q 2753 -38 2606 -38 
Q 2419 -38 2283 107 
Q 2147 253 2131 453 
Q 2013 213 1781 70 
Q 1550 -72 1288 -72 
Q 1044 -72 808 0 
Q 572 72 414 226 
Q 256 381 256 628 
z
M 775 628 
Q 775 403 940 250 
Q 1106 97 1331 97 
Q 1538 97 1706 200 
Q 1875 303 1975 481 
Q 2075 659 2075 856 
L 2075 1522 
Q 1784 1522 1479 1426 
Q 1175 1331 975 1128 
Q 775 925 775 628 
z
" transform="scale(0.015625)"/>
      <path id="Cmr10-63" d="M 1594 -72 
Q 1206 -72 890 129 
Q 575 331 394 667 
Q 213 1003 213 1381 
Q 213 1759 392 2106 
Q 572 2453 889 2661 
Q 1206 2869 1594 2869 
Q 1969 2869 2276 2722 
Q 2584 2575 2584 2241 
Q 2584 2116 2495 2023 
Q 2406 1931 2278 1931 
Q 2150 1931 2061 2023 
Q 1972 2116 1972 2241 
Q 1972 2353 2044 2436 
Q 2116 2519 2222 2541 
Q 2000 2681 1600 2681 
Q 1294 2681 1106 2478 
Q 919 2275 844 1975 
Q 769 1675 769 1381 
Q 769 1072 861 783 
Q 953 494 1158 305 
Q 1363 116 1672 116 
Q 1975 116 2187 302 
Q 2400 488 2478 788 
Q 2478 825 2528 825 
L 2606 825 
Q 2625 825 2640 808 
Q 2656 791 2656 769 
L 2656 750 
Q 2559 372 2271 150 
Q 1984 -72 1594 -72 
z
" transform="scale(0.015625)"/>
      <path id="Cmr10-65" d="M 1594 -72 
Q 1203 -72 876 133 
Q 550 338 364 680 
Q 178 1022 178 1403 
Q 178 1778 348 2115 
Q 519 2453 823 2661 
Q 1128 2869 1503 2869 
Q 1797 2869 2014 2770 
Q 2231 2672 2372 2497 
Q 2513 2322 2584 2084 
Q 2656 1847 2656 1563 
Q 2656 1478 2591 1478 
L 738 1478 
L 738 1409 
Q 738 878 952 497 
Q 1166 116 1650 116 
Q 1847 116 2014 203 
Q 2181 291 2304 447 
Q 2428 603 2472 781 
Q 2478 803 2495 820 
Q 2513 838 2534 838 
L 2591 838 
Q 2656 838 2656 756 
Q 2566 394 2266 161 
Q 1966 -72 1594 -72 
z
M 744 1638 
L 2203 1638 
Q 2203 1878 2136 2125 
Q 2069 2372 1912 2536 
Q 1756 2700 1503 2700 
Q 1141 2700 942 2361 
Q 744 2022 744 1638 
z
" transform="scale(0.015625)"/>
      <path id="Cmr10-3d" d="M 481 850 
Q 428 850 393 890 
Q 359 931 359 978 
Q 359 1031 393 1068 
Q 428 1106 481 1106 
L 4500 1106 
Q 4547 1106 4581 1068 
Q 4616 1031 4616 978 
Q 4616 931 4581 890 
Q 4547 850 4500 850 
L 481 850 
z
M 481 2094 
Q 428 2094 393 2131 
Q 359 2169 359 2222 
Q 359 2269 393 2309 
Q 428 2350 481 2350 
L 4500 2350 
Q 4547 2350 4581 2309 
Q 4616 2269 4616 2222 
Q 4616 2169 4581 2131 
Q 4547 2094 4500 2094 
L 481 2094 
z
" transform="scale(0.015625)"/>
      <path id="Cmr10-35" d="M 556 728 
Q 622 541 758 387 
Q 894 234 1080 148 
Q 1266 63 1466 63 
Q 1928 63 2103 422 
Q 2278 781 2278 1294 
Q 2278 1516 2270 1667 
Q 2263 1819 2228 1959 
Q 2169 2184 2020 2353 
Q 1872 2522 1656 2522 
Q 1441 2522 1286 2456 
Q 1131 2391 1034 2303 
Q 938 2216 863 2119 
Q 788 2022 769 2016 
L 697 2016 
Q 681 2016 657 2036 
Q 634 2056 634 2075 
L 634 4213 
Q 634 4228 654 4245 
Q 675 4263 697 4263 
L 716 4263 
Q 1147 4056 1631 4056 
Q 2106 4056 2547 4263 
L 2566 4263 
Q 2588 4263 2606 4247 
Q 2625 4231 2625 4213 
L 2625 4153 
Q 2625 4122 2613 4122 
Q 2394 3831 2064 3668 
Q 1734 3506 1381 3506 
Q 1125 3506 856 3578 
L 856 2369 
Q 1069 2541 1236 2614 
Q 1403 2688 1663 2688 
Q 2016 2688 2295 2484 
Q 2575 2281 2725 1954 
Q 2875 1628 2875 1288 
Q 2875 903 2686 575 
Q 2497 247 2172 53 
Q 1847 -141 1466 -141 
Q 1150 -141 886 21 
Q 622 184 470 459 
Q 319 734 319 1044 
Q 319 1188 412 1278 
Q 506 1369 647 1369 
Q 788 1369 883 1276 
Q 978 1184 978 1044 
Q 978 906 883 811 
Q 788 716 647 716 
Q 625 716 597 720 
Q 569 725 556 728 
z
" transform="scale(0.015625)"/>
      <path id="Cmr10-33" d="M 609 494 
Q 759 275 1012 169 
Q 1266 63 1556 63 
Q 1928 63 2084 380 
Q 2241 697 2241 1100 
Q 2241 1281 2208 1462 
Q 2175 1644 2097 1800 
Q 2019 1956 1883 2050 
Q 1747 2144 1550 2144 
L 1125 2144 
Q 1069 2144 1069 2203 
L 1069 2259 
Q 1069 2309 1125 2309 
L 1478 2338 
Q 1703 2338 1851 2506 
Q 2000 2675 2069 2917 
Q 2138 3159 2138 3378 
Q 2138 3684 1994 3881 
Q 1850 4078 1556 4078 
Q 1313 4078 1091 3986 
Q 869 3894 738 3706 
Q 750 3709 759 3711 
Q 769 3713 781 3713 
Q 925 3713 1022 3613 
Q 1119 3513 1119 3372 
Q 1119 3234 1022 3134 
Q 925 3034 781 3034 
Q 641 3034 541 3134 
Q 441 3234 441 3372 
Q 441 3647 606 3850 
Q 772 4053 1033 4158 
Q 1294 4263 1556 4263 
Q 1750 4263 1965 4205 
Q 2181 4147 2356 4039 
Q 2531 3931 2642 3762 
Q 2753 3594 2753 3378 
Q 2753 3109 2633 2881 
Q 2513 2653 2303 2487 
Q 2094 2322 1844 2241 
Q 2122 2188 2372 2031 
Q 2622 1875 2773 1631 
Q 2925 1388 2925 1106 
Q 2925 753 2731 467 
Q 2538 181 2222 20 
Q 1906 -141 1556 -141 
Q 1256 -141 954 -26 
Q 653 88 461 316 
Q 269 544 269 863 
Q 269 1022 375 1128 
Q 481 1234 641 1234 
Q 744 1234 830 1186 
Q 916 1138 964 1050 
Q 1013 963 1013 863 
Q 1013 706 903 600 
Q 794 494 641 494 
L 609 494 
z
" transform="scale(0.015625)"/>
      <path id="Cmr10-36" d="M 1600 -141 
Q 1203 -141 937 70 
Q 672 281 526 617 
Q 381 953 325 1322 
Q 269 1691 269 2069 
Q 269 2575 466 3084 
Q 663 3594 1045 3928 
Q 1428 4263 1953 4263 
Q 2172 4263 2361 4180 
Q 2550 4097 2658 3936 
Q 2766 3775 2766 3547 
Q 2766 3416 2677 3327 
Q 2588 3238 2456 3238 
Q 2331 3238 2240 3328 
Q 2150 3419 2150 3547 
Q 2150 3672 2240 3762 
Q 2331 3853 2456 3853 
L 2491 3853 
Q 2409 3969 2261 4023 
Q 2113 4078 1953 4078 
Q 1759 4078 1595 3993 
Q 1431 3909 1300 3765 
Q 1169 3622 1081 3448 
Q 994 3275 945 3053 
Q 897 2831 884 2637 
Q 872 2444 872 2150 
Q 984 2413 1190 2580 
Q 1397 2747 1656 2747 
Q 1941 2747 2175 2631 
Q 2409 2516 2578 2311 
Q 2747 2106 2836 1843 
Q 2925 1581 2925 1313 
Q 2925 938 2758 598 
Q 2591 259 2287 59 
Q 1984 -141 1600 -141 
z
M 1600 63 
Q 1847 63 1997 175 
Q 2147 288 2217 473 
Q 2288 659 2305 848 
Q 2322 1038 2322 1313 
Q 2322 1675 2287 1931 
Q 2253 2188 2100 2383 
Q 1947 2578 1631 2578 
Q 1372 2578 1205 2403 
Q 1038 2228 961 1961 
Q 884 1694 884 1447 
Q 884 1363 891 1319 
Q 891 1309 889 1303 
Q 888 1297 884 1288 
Q 884 1013 940 731 
Q 997 450 1156 256 
Q 1316 63 1600 63 
z
" transform="scale(0.015625)"/>
      <path id="Cmr10-39" d="M 722 269 
Q 897 63 1331 63 
Q 1575 63 1786 228 
Q 1997 394 2113 634 
Q 2247 906 2284 1214 
Q 2322 1522 2322 1978 
Q 2213 1719 2008 1553 
Q 1803 1388 1538 1388 
Q 1166 1388 873 1589 
Q 581 1791 425 2120 
Q 269 2450 269 2822 
Q 269 3206 444 3539 
Q 619 3872 928 4067 
Q 1238 4263 1631 4263 
Q 2019 4263 2280 4052 
Q 2541 3841 2678 3508 
Q 2816 3175 2870 2803 
Q 2925 2431 2925 2069 
Q 2925 1575 2744 1061 
Q 2563 547 2202 203 
Q 1841 -141 1331 -141 
Q 953 -141 690 37 
Q 428 216 428 575 
Q 428 706 517 795 
Q 606 884 738 884 
Q 866 884 955 795 
Q 1044 706 1044 575 
Q 1044 450 953 359 
Q 863 269 738 269 
L 722 269 
z
M 1563 1556 
Q 1825 1556 1992 1732 
Q 2159 1909 2234 2171 
Q 2309 2434 2309 2694 
L 2309 2816 
L 2309 2841 
Q 2309 3322 2168 3700 
Q 2028 4078 1631 4078 
Q 1378 4078 1220 3967 
Q 1063 3856 988 3672 
Q 913 3488 892 3278 
Q 872 3069 872 2822 
Q 872 2459 906 2203 
Q 941 1947 1094 1751 
Q 1247 1556 1563 1556 
z
" transform="scale(0.015625)"/>
      <path id="DejaVuSans-70" d="M 1159 525 
L 1159 -1331 
L 581 -1331 
L 581 3500 
L 1159 3500 
L 1159 2969 
Q 1341 3281 1617 3432 
Q 1894 3584 2278 3584 
Q 2916 3584 3314 3078 
Q 3713 2572 3713 1747 
Q 3713 922 3314 415 
Q 2916 -91 2278 -91 
Q 1894 -91 1617 61 
Q 1341 213 1159 525 
z
M 3116 1747 
Q 3116 2381 2855 2742 
Q 2594 3103 2138 3103 
Q 1681 3103 1420 2742 
Q 1159 2381 1159 1747 
Q 1159 1113 1420 752 
Q 1681 391 2138 391 
Q 2594 391 2855 752 
Q 3116 1113 3116 1747 
z
" transform="scale(0.015625)"/>
      <path id="DejaVuSans-66" d="M 2375 4863 
L 2375 4384 
L 1825 4384 
Q 1516 4384 1395 4259 
Q 1275 4134 1275 3809 
L 1275 3500 
L 2222 3500 
L 2222 3053 
L 1275 3053 
L 1275 0 
L 697 0 
L 697 3053 
L 147 3053 
L 147 3500 
L 697 3500 
L 697 3744 
Q 697 4328 969 4595 
Q 1241 4863 1831 4863 
L 2375 4863 
z
" transform="scale(0.015625)"/>
      <path id="Cmr10-69" d="M 197 0 
L 197 225 
Q 416 225 556 259 
Q 697 294 697 428 
L 697 2175 
Q 697 2422 601 2478 
Q 506 2534 225 2534 
L 225 2759 
L 1147 2828 
L 1147 428 
Q 1147 294 1269 259 
Q 1391 225 1594 225 
L 1594 0 
L 197 0 
z
M 469 3928 
Q 469 4069 575 4175 
Q 681 4281 819 4281 
Q 909 4281 993 4234 
Q 1078 4188 1125 4103 
Q 1172 4019 1172 3928 
Q 1172 3791 1065 3684 
Q 959 3578 819 3578 
Q 681 3578 575 3684 
Q 469 3791 469 3928 
z
" transform="scale(0.015625)"/>
      <path id="Cmr10-6e" d="M 191 0 
L 191 225 
Q 409 225 550 259 
Q 691 294 691 428 
L 691 2175 
Q 691 2347 639 2423 
Q 588 2500 491 2517 
Q 394 2534 191 2534 
L 191 2759 
L 1119 2828 
L 1119 2203 
Q 1247 2478 1498 2653 
Q 1750 2828 2047 2828 
Q 2491 2828 2714 2615 
Q 2938 2403 2938 1966 
L 2938 428 
Q 2938 294 3078 259 
Q 3219 225 3438 225 
L 3438 0 
L 1972 0 
L 1972 225 
Q 2191 225 2331 259 
Q 2472 294 2472 428 
L 2472 1947 
Q 2472 2259 2381 2461 
Q 2291 2663 2009 2663 
Q 1638 2663 1398 2366 
Q 1159 2069 1159 1691 
L 1159 428 
Q 1159 294 1300 259 
Q 1441 225 1656 225 
L 1656 0 
L 191 0 
z
" transform="scale(0.015625)"/>
     </defs>
     <use xlink:href="#Cmsy10-6a" transform="translate(0 0.40625)"/>
     <use xlink:href="#Cmmi10-7e" transform="translate(32.642578 29.609375)"/>
     <use xlink:href="#Cmmi10-45" transform="translate(27.685547 0.40625)"/>
     <use xlink:href="#Cmr10-73" transform="translate(105.928984 -16.6) scale(0.7)"/>
     <use xlink:href="#Cmr10-75" transform="translate(133.511992 -16.6) scale(0.7)"/>
     <use xlink:href="#Cmr10-72" transform="translate(172.374297 -16.6) scale(0.7)"/>
     <use xlink:href="#Cmr10-66" transform="translate(199.752227 -16.6) scale(0.7)"/>
     <use xlink:href="#Cmr10-61" transform="translate(221.114531 -16.6) scale(0.7)"/>
     <use xlink:href="#Cmr10-63" transform="translate(256.114531 -16.6) scale(0.7)"/>
     <use xlink:href="#Cmr10-65" transform="translate(287.183867 -16.6) scale(0.7)"/>
     <use xlink:href="#Cmsy10-6a" transform="translate(324.630547 0.40625)"/>
     <use xlink:href="#Cmr10-3d" transform="translate(369.874687 0.40625)"/>
     <use xlink:href="#Cmr10-35" transform="translate(465.118828 0.40625)"/>
     <use xlink:href="#Cmr10-33" transform="translate(515.118828 0.40625)"/>
     <use xlink:href="#Cmr10-36" transform="translate(565.118828 0.40625)"/>
     <use xlink:href="#Cmr10-39" transform="translate(615.118828 0.40625)"/>
     <use xlink:href="#DejaVuSans-20" transform="translate(665.118828 0.40625)"/>
     <use xlink:href="#DejaVuSans-70" transform="translate(696.905937 0.40625)"/>
     <use xlink:href="#DejaVuSans-70" transform="translate(760.3825 0.40625)"/>
     <use xlink:href="#DejaVuSans-6d" transform="translate(823.859062 0.40625)"/>
     <use xlink:href="#DejaVuSans-20" transform="translate(921.271172 0.40625)"/>
     <use xlink:href="#DejaVuSans-6f" transform="translate(953.058281 0.40625)"/>
     <use xlink:href="#DejaVuSans-66" transform="translate(1014.239922 0.40625)"/>
     <use xlink:href="#DejaVuSans-20" transform="translate(1049.445 0.40625)"/>
     <use xlink:href="#Cmsy10-6a" transform="translate(1081.232109 0.40625)"/>
     <use xlink:href="#Cmmi10-7e" transform="translate(1113.874687 29.609375)"/>
     <use xlink:href="#Cmmi10-45" transform="translate(1108.917656 0.40625)"/>
     <use xlink:href="#Cmr10-69" transform="translate(1187.161094 -16.6) scale(0.7)"/>
     <use xlink:href="#Cmr10-6e" transform="translate(1206.540977 -16.6) scale(0.7)"/>
     <use xlink:href="#Cmr10-63" transform="translate(1245.403281 -16.6) scale(0.7)"/>
     <use xlink:href="#Cmsy10-6a" transform="translate(1282.849961 0.40625)"/>
    </g>
   </g>
  </g>
  <g id="axes_2">
   <g id="patch_7">
    <path d="M 74.428632 508.32 
L 817.468632 508.32 
L 817.468632 276.200597 
L 74.428632 276.200597 
z
" style="fill: #eeeeee"/>
   </g>
   <g id="patch_8">
    <path d="M 108.203177 508.32 
L 119.456776 508.32 
L 119.456776 446.212315 
L 108.203177 446.212315 
z
" clip-path="url(#pafae86f48d)" style="fill: #01f9c6; opacity: 0.4"/>
   </g>
   <g id="patch_9">
    <path d="M 132.037639 508.32 
L 136.891079 508.32 
L 136.891079 481.534263 
L 132.037639 481.534263 
z
" clip-path="url(#pafae86f48d)" style="fill: #01f9c6; opacity: 0.4"/>
   </g>
   <g id="patch_10">
    <path d="M 157.555854 508.32 
L 183.913119 508.32 
L 183.913119 362.856424 
L 157.555854 362.856424 
z
" clip-path="url(#pafae86f48d)" style="fill: #01f9c6; opacity: 0.4"/>
   </g>
   <g id="patch_11">
    <path d="M 197.145136 508.32 
L 214.324259 508.32 
L 214.324259 413.509836 
L 197.145136 413.509836 
z
" clip-path="url(#pafae86f48d)" style="fill: #01f9c6; opacity: 0.4"/>
   </g>
   <g id="patch_12">
    <path d="M 239.892014 508.32 
L 259.149197 508.32 
L 259.149197 402.04119 
L 239.892014 402.04119 
z
" clip-path="url(#pafae86f48d)" style="fill: #01f9c6; opacity: 0.4"/>
   </g>
   <g id="patch_13">
    <path d="M 275.044841 508.32 
L 284.37352 508.32 
L 284.37352 456.83579 
L 275.044841 456.83579 
z
" clip-path="url(#pafae86f48d)" style="fill: #01f9c6; opacity: 0.4"/>
   </g>
   <g id="patch_14">
    <path d="M 317.109778 508.32 
L 333.302562 508.32 
L 333.302562 418.953355 
L 317.109778 418.953355 
z
" clip-path="url(#pafae86f48d)" style="fill: #01f9c6; opacity: 0.4"/>
   </g>
   <g id="patch_15">
    <path d="M 373.358622 508.32 
L 395.13074 508.32 
L 395.13074 388.161469 
L 373.358622 388.161469 
z
" clip-path="url(#pafae86f48d)" style="fill: #01f9c6; opacity: 0.4"/>
   </g>
   <g id="patch_16">
    <path d="M 413.653008 508.32 
L 437.352965 508.32 
L 437.352965 377.52189 
L 413.653008 377.52189 
z
" clip-path="url(#pafae86f48d)" style="fill: #01f9c6; opacity: 0.4"/>
   </g>
   <g id="patch_17">
    <path d="M 445.578851 508.32 
L 466.113114 508.32 
L 466.113114 394.993089 
L 445.578851 394.993089 
z
" clip-path="url(#pafae86f48d)" style="fill: #01f9c6; opacity: 0.4"/>
   </g>
   <g id="patch_18">
    <path d="M 504.099174 508.32 
L 527.621294 508.32 
L 527.621294 378.503359 
L 504.099174 378.503359 
z
" clip-path="url(#pafae86f48d)" style="fill: #01f9c6; opacity: 0.4"/>
   </g>
   <g id="patch_19">
    <path d="M 557.312078 508.32 
L 572.870844 508.32 
L 572.870844 422.45245 
L 557.312078 422.45245 
z
" clip-path="url(#pafae86f48d)" style="fill: #01f9c6; opacity: 0.4"/>
   </g>
   <g id="patch_20">
    <path d="M 608.085208 508.32 
L 617.65493 508.32 
L 617.65493 455.50549 
L 608.085208 455.50549 
z
" clip-path="url(#pafae86f48d)" style="fill: #01f9c6; opacity: 0.4"/>
   </g>
   <g id="patch_21">
    <path d="M 635.380714 508.32 
L 661.411443 508.32 
L 661.411443 364.658548 
L 635.380714 364.658548 
z
" clip-path="url(#pafae86f48d)" style="fill: #01f9c6; opacity: 0.4"/>
   </g>
   <g id="patch_22">
    <path d="M 679.05414 508.32 
L 704.726744 508.32 
L 704.726744 366.635012 
L 679.05414 366.635012 
z
" clip-path="url(#pafae86f48d)" style="fill: #01f9c6; opacity: 0.4"/>
   </g>
   <g id="patch_23">
    <path d="M 726.456457 508.32 
L 744.502229 508.32 
L 744.502229 408.726872 
L 726.456457 408.726872 
z
" clip-path="url(#pafae86f48d)" style="fill: #01f9c6; opacity: 0.4"/>
   </g>
   <g id="patch_24">
    <path d="M 779.448147 508.32 
L 783.694086 508.32 
L 783.694086 484.887009 
L 779.448147 484.887009 
z
" clip-path="url(#pafae86f48d)" style="fill: #01f9c6; opacity: 0.4"/>
   </g>
   <g id="patch_25">
    <path d="M 119.456776 508.32 
L 132.037639 508.32 
L 132.037639 438.88725 
L 119.456776 438.88725 
z
" clip-path="url(#pafae86f48d)" style="fill: #36013f; opacity: 0.4"/>
   </g>
   <g id="patch_26">
    <path d="M 136.891079 508.32 
L 157.555854 508.32 
L 157.555854 394.272809 
L 136.891079 394.272809 
z
" clip-path="url(#pafae86f48d)" style="fill: #36013f; opacity: 0.4"/>
   </g>
   <g id="patch_27">
    <path d="M 183.913119 508.32 
L 197.145136 508.32 
L 197.145136 435.293583 
L 183.913119 435.293583 
z
" clip-path="url(#pafae86f48d)" style="fill: #36013f; opacity: 0.4"/>
   </g>
   <g id="patch_28">
    <path d="M 214.324259 508.32 
L 239.892014 508.32 
L 239.892014 367.21366 
L 214.324259 367.21366 
z
" clip-path="url(#pafae86f48d)" style="fill: #36013f; opacity: 0.4"/>
   </g>
   <g id="patch_29">
    <path d="M 259.149197 508.32 
L 275.044841 508.32 
L 275.044841 420.593249 
L 259.149197 420.593249 
z
" clip-path="url(#pafae86f48d)" style="fill: #36013f; opacity: 0.4"/>
   </g>
   <g id="patch_30">
    <path d="M 284.37352 508.32 
L 317.109778 508.32 
L 317.109778 327.651285 
L 284.37352 327.651285 
z
" clip-path="url(#pafae86f48d)" style="fill: #36013f; opacity: 0.4"/>
   </g>
   <g id="patch_31">
    <path d="M 333.302562 508.32 
L 373.358622 508.32 
L 373.358622 287.253902 
L 333.302562 287.253902 
z
" clip-path="url(#pafae86f48d)" style="fill: #36013f; opacity: 0.4"/>
   </g>
   <g id="patch_32">
    <path d="M 395.13074 508.32 
L 413.653008 508.32 
L 413.653008 406.097126 
L 395.13074 406.097126 
z
" clip-path="url(#pafae86f48d)" style="fill: #36013f; opacity: 0.4"/>
   </g>
   <g id="patch_33">
    <path d="M 437.352965 508.32 
L 445.578851 508.32 
L 445.578851 462.92201 
L 437.352965 462.92201 
z
" clip-path="url(#pafae86f48d)" style="fill: #36013f; opacity: 0.4"/>
   </g>
   <g id="patch_34">
    <path d="M 466.113114 508.32 
L 504.099174 508.32 
L 504.099174 298.678059 
L 466.113114 298.678059 
z
" clip-path="url(#pafae86f48d)" style="fill: #36013f; opacity: 0.4"/>
   </g>
   <g id="patch_35">
    <path d="M 527.621294 508.32 
L 557.312078 508.32 
L 557.312078 344.459002 
L 527.621294 344.459002 
z
" clip-path="url(#pafae86f48d)" style="fill: #36013f; opacity: 0.4"/>
   </g>
   <g id="patch_36">
    <path d="M 572.870844 508.32 
L 608.085208 508.32 
L 608.085208 313.974822 
L 572.870844 313.974822 
z
" clip-path="url(#pafae86f48d)" style="fill: #36013f; opacity: 0.4"/>
   </g>
   <g id="patch_37">
    <path d="M 617.65493 508.32 
L 635.380714 508.32 
L 635.380714 410.492857 
L 617.65493 410.492857 
z
" clip-path="url(#pafae86f48d)" style="fill: #36013f; opacity: 0.4"/>
   </g>
   <g id="patch_38">
    <path d="M 661.411443 508.32 
L 679.05414 508.32 
L 679.05414 410.951407 
L 661.411443 410.951407 
z
" clip-path="url(#pafae86f48d)" style="fill: #36013f; opacity: 0.4"/>
   </g>
   <g id="patch_39">
    <path d="M 704.726744 508.32 
L 726.456457 508.32 
L 726.456457 388.395496 
L 704.726744 388.395496 
z
" clip-path="url(#pafae86f48d)" style="fill: #36013f; opacity: 0.4"/>
   </g>
   <g id="patch_40">
    <path d="M 744.502229 508.32 
L 779.448147 508.32 
L 779.448147 315.456353 
L 744.502229 315.456353 
z
" clip-path="url(#pafae86f48d)" style="fill: #36013f; opacity: 0.4"/>
   </g>
   <g id="matplotlib.axis_3">
    <g id="xtick_7">
     <g id="line2d_22">
      <path d="M 108.203177 508.32 
L 108.203177 276.200597 
" clip-path="url(#pafae86f48d)" style="fill: none; stroke-dasharray: 1.85,0.8; stroke-dashoffset: 0; stroke: #0485d1; stroke-opacity: 0.2; stroke-width: 0.5"/>
     </g>
     <g id="line2d_23">
      <g>
       <use xlink:href="#m70556f83c5" x="108.203177" y="508.32" style="stroke: #000000; stroke-width: 0.8"/>
      </g>
     </g>
     <g id="text_7">
      <!-- 0 -->
      <g transform="translate(101.204427 528.536562) scale(0.22 -0.22)">
       <use xlink:href="#DejaVuSans-30"/>
      </g>
     </g>
    </g>
    <g id="xtick_8">
     <g id="line2d_24">
      <path d="M 249.417888 508.32 
L 249.417888 276.200597 
" clip-path="url(#pafae86f48d)" style="fill: none; stroke-dasharray: 1.85,0.8; stroke-dashoffset: 0; stroke: #0485d1; stroke-opacity: 0.2; stroke-width: 0.5"/>
     </g>
     <g id="line2d_25">
      <g>
       <use xlink:href="#m70556f83c5" x="249.417888" y="508.32" style="stroke: #000000; stroke-width: 0.8"/>
      </g>
     </g>
     <g id="text_8">
      <!-- 1 -->
      <g transform="translate(242.419138 528.536562) scale(0.22 -0.22)">
       <use xlink:href="#DejaVuSans-31"/>
      </g>
     </g>
    </g>
    <g id="xtick_9">
     <g id="line2d_26">
      <path d="M 390.632599 508.32 
L 390.632599 276.200597 
" clip-path="url(#pafae86f48d)" style="fill: none; stroke-dasharray: 1.85,0.8; stroke-dashoffset: 0; stroke: #0485d1; stroke-opacity: 0.2; stroke-width: 0.5"/>
     </g>
     <g id="line2d_27">
      <g>
       <use xlink:href="#m70556f83c5" x="390.632599" y="508.32" style="stroke: #000000; stroke-width: 0.8"/>
      </g>
     </g>
     <g id="text_9">
      <!-- 2 -->
      <g transform="translate(383.633849 528.536562) scale(0.22 -0.22)">
       <defs>
        <path id="DejaVuSans-32" d="M 1228 531 
L 3431 531 
L 3431 0 
L 469 0 
L 469 531 
Q 828 903 1448 1529 
Q 2069 2156 2228 2338 
Q 2531 2678 2651 2914 
Q 2772 3150 2772 3378 
Q 2772 3750 2511 3984 
Q 2250 4219 1831 4219 
Q 1534 4219 1204 4116 
Q 875 4013 500 3803 
L 500 4441 
Q 881 4594 1212 4672 
Q 1544 4750 1819 4750 
Q 2544 4750 2975 4387 
Q 3406 4025 3406 3419 
Q 3406 3131 3298 2873 
Q 3191 2616 2906 2266 
Q 2828 2175 2409 1742 
Q 1991 1309 1228 531 
z
" transform="scale(0.015625)"/>
       </defs>
       <use xlink:href="#DejaVuSans-32"/>
      </g>
     </g>
    </g>
    <g id="xtick_10">
     <g id="line2d_28">
      <path d="M 531.84731 508.32 
L 531.84731 276.200597 
" clip-path="url(#pafae86f48d)" style="fill: none; stroke-dasharray: 1.85,0.8; stroke-dashoffset: 0; stroke: #0485d1; stroke-opacity: 0.2; stroke-width: 0.5"/>
     </g>
     <g id="line2d_29">
      <g>
       <use xlink:href="#m70556f83c5" x="531.84731" y="508.32" style="stroke: #000000; stroke-width: 0.8"/>
      </g>
     </g>
     <g id="text_10">
      <!-- 3 -->
      <g transform="translate(524.84856 528.536562) scale(0.22 -0.22)">
       <defs>
        <path id="DejaVuSans-33" d="M 2597 2516 
Q 3050 2419 3304 2112 
Q 3559 1806 3559 1356 
Q 3559 666 3084 287 
Q 2609 -91 1734 -91 
Q 1441 -91 1130 -33 
Q 819 25 488 141 
L 488 750 
Q 750 597 1062 519 
Q 1375 441 1716 441 
Q 2309 441 2620 675 
Q 2931 909 2931 1356 
Q 2931 1769 2642 2001 
Q 2353 2234 1838 2234 
L 1294 2234 
L 1294 2753 
L 1863 2753 
Q 2328 2753 2575 2939 
Q 2822 3125 2822 3475 
Q 2822 3834 2567 4026 
Q 2313 4219 1838 4219 
Q 1578 4219 1281 4162 
Q 984 4106 628 3988 
L 628 4550 
Q 988 4650 1302 4700 
Q 1616 4750 1894 4750 
Q 2613 4750 3031 4423 
Q 3450 4097 3450 3541 
Q 3450 3153 3228 2886 
Q 3006 2619 2597 2516 
z
" transform="scale(0.015625)"/>
       </defs>
       <use xlink:href="#DejaVuSans-33"/>
      </g>
     </g>
    </g>
    <g id="xtick_11">
     <g id="line2d_30">
      <path d="M 673.062021 508.32 
L 673.062021 276.200597 
" clip-path="url(#pafae86f48d)" style="fill: none; stroke-dasharray: 1.85,0.8; stroke-dashoffset: 0; stroke: #0485d1; stroke-opacity: 0.2; stroke-width: 0.5"/>
     </g>
     <g id="line2d_31">
      <g>
       <use xlink:href="#m70556f83c5" x="673.062021" y="508.32" style="stroke: #000000; stroke-width: 0.8"/>
      </g>
     </g>
     <g id="text_11">
      <!-- 4 -->
      <g transform="translate(666.063271 528.536562) scale(0.22 -0.22)">
       <defs>
        <path id="DejaVuSans-34" d="M 2419 4116 
L 825 1625 
L 2419 1625 
L 2419 4116 
z
M 2253 4666 
L 3047 4666 
L 3047 1625 
L 3713 1625 
L 3713 1100 
L 3047 1100 
L 3047 0 
L 2419 0 
L 2419 1100 
L 313 1100 
L 313 1709 
L 2253 4666 
z
" transform="scale(0.015625)"/>
       </defs>
       <use xlink:href="#DejaVuSans-34"/>
      </g>
     </g>
    </g>
    <g id="xtick_12">
     <g id="line2d_32">
      <path d="M 814.276732 508.32 
L 814.276732 276.200597 
" clip-path="url(#pafae86f48d)" style="fill: none; stroke-dasharray: 1.85,0.8; stroke-dashoffset: 0; stroke: #0485d1; stroke-opacity: 0.2; stroke-width: 0.5"/>
     </g>
     <g id="line2d_33">
      <g>
       <use xlink:href="#m70556f83c5" x="814.276732" y="508.32" style="stroke: #000000; stroke-width: 0.8"/>
      </g>
     </g>
     <g id="text_12">
      <!-- 5 -->
      <g transform="translate(807.277982 528.536562) scale(0.22 -0.22)">
       <use xlink:href="#DejaVuSans-35"/>
      </g>
     </g>
    </g>
    <g id="text_13">
     <!-- Distance from air interface, $[\mu \mathrm{m}]$ -->
     <g transform="translate(298.699222 551.039635) scale(0.18326 -0.18326)">
      <defs>
       <path id="DejaVuSans-44" d="M 1259 4147 
L 1259 519 
L 2022 519 
Q 2988 519 3436 956 
Q 3884 1394 3884 2338 
Q 3884 3275 3436 3711 
Q 2988 4147 2022 4147 
L 1259 4147 
z
M 628 4666 
L 1925 4666 
Q 3281 4666 3915 4102 
Q 4550 3538 4550 2338 
Q 4550 1131 3912 565 
Q 3275 0 1925 0 
L 628 0 
L 628 4666 
z
" transform="scale(0.015625)"/>
       <path id="DejaVuSans-73" d="M 2834 3397 
L 2834 2853 
Q 2591 2978 2328 3040 
Q 2066 3103 1784 3103 
Q 1356 3103 1142 2972 
Q 928 2841 928 2578 
Q 928 2378 1081 2264 
Q 1234 2150 1697 2047 
L 1894 2003 
Q 2506 1872 2764 1633 
Q 3022 1394 3022 966 
Q 3022 478 2636 193 
Q 2250 -91 1575 -91 
Q 1294 -91 989 -36 
Q 684 19 347 128 
L 347 722 
Q 666 556 975 473 
Q 1284 391 1588 391 
Q 1994 391 2212 530 
Q 2431 669 2431 922 
Q 2431 1156 2273 1281 
Q 2116 1406 1581 1522 
L 1381 1569 
Q 847 1681 609 1914 
Q 372 2147 372 2553 
Q 372 3047 722 3315 
Q 1072 3584 1716 3584 
Q 2034 3584 2315 3537 
Q 2597 3491 2834 3397 
z
" transform="scale(0.015625)"/>
       <path id="DejaVuSans-74" d="M 1172 4494 
L 1172 3500 
L 2356 3500 
L 2356 3053 
L 1172 3053 
L 1172 1153 
Q 1172 725 1289 603 
Q 1406 481 1766 481 
L 2356 481 
L 2356 0 
L 1766 0 
Q 1100 0 847 248 
Q 594 497 594 1153 
L 594 3053 
L 172 3053 
L 172 3500 
L 594 3500 
L 594 4494 
L 1172 4494 
z
" transform="scale(0.015625)"/>
       <path id="DejaVuSans-6e" d="M 3513 2113 
L 3513 0 
L 2938 0 
L 2938 2094 
Q 2938 2591 2744 2837 
Q 2550 3084 2163 3084 
Q 1697 3084 1428 2787 
Q 1159 2491 1159 1978 
L 1159 0 
L 581 0 
L 581 3500 
L 1159 3500 
L 1159 2956 
Q 1366 3272 1645 3428 
Q 1925 3584 2291 3584 
Q 2894 3584 3203 3211 
Q 3513 2838 3513 2113 
z
" transform="scale(0.015625)"/>
       <path id="DejaVuSans-63" d="M 3122 3366 
L 3122 2828 
Q 2878 2963 2633 3030 
Q 2388 3097 2138 3097 
Q 1578 3097 1268 2742 
Q 959 2388 959 1747 
Q 959 1106 1268 751 
Q 1578 397 2138 397 
Q 2388 397 2633 464 
Q 2878 531 3122 666 
L 3122 134 
Q 2881 22 2623 -34 
Q 2366 -91 2075 -91 
Q 1284 -91 818 406 
Q 353 903 353 1747 
Q 353 2603 823 3093 
Q 1294 3584 2113 3584 
Q 2378 3584 2631 3529 
Q 2884 3475 3122 3366 
z
" transform="scale(0.015625)"/>
       <path id="DejaVuSans-2c" d="M 750 794 
L 1409 794 
L 1409 256 
L 897 -744 
L 494 -744 
L 750 256 
L 750 794 
z
" transform="scale(0.015625)"/>
       <path id="Cmr10-5b" d="M 756 -1600 
L 756 4800 
L 1631 4800 
L 1631 4544 
L 1013 4544 
L 1013 -1344 
L 1631 -1344 
L 1631 -1600 
L 756 -1600 
z
" transform="scale(0.015625)"/>
       <path id="Cmmi10-b9" d="M 178 -1203 
Q 178 -1166 184 -1153 
L 1125 2625 
Q 1153 2716 1226 2772 
Q 1300 2828 1394 2828 
Q 1475 2828 1531 2779 
Q 1588 2731 1588 2650 
Q 1588 2631 1586 2620 
Q 1584 2609 1581 2597 
L 1203 1100 
Q 1141 834 1141 641 
Q 1141 403 1253 250 
Q 1366 97 1594 97 
Q 2059 97 2413 678 
Q 2416 684 2417 687 
Q 2419 691 2419 697 
L 2881 2553 
Q 2903 2638 2981 2698 
Q 3059 2759 3150 2759 
Q 3225 2759 3283 2709 
Q 3341 2659 3341 2578 
Q 3341 2541 3334 2528 
L 2875 684 
Q 2828 503 2828 372 
Q 2828 97 3016 97 
Q 3216 97 3317 344 
Q 3419 591 3494 941 
Q 3506 978 3547 978 
L 3622 978 
Q 3647 978 3664 958 
Q 3681 938 3681 916 
Q 3569 469 3436 198 
Q 3303 -72 3003 -72 
Q 2791 -72 2627 50 
Q 2463 172 2413 378 
Q 2253 178 2039 53 
Q 1825 -72 1588 -72 
Q 1188 -72 959 116 
L 634 -1178 
Q 616 -1269 541 -1325 
Q 466 -1381 372 -1381 
Q 294 -1381 236 -1332 
Q 178 -1284 178 -1203 
z
" transform="scale(0.015625)"/>
       <path id="Cmr10-6d" d="M 191 0 
L 191 225 
Q 409 225 550 259 
Q 691 294 691 428 
L 691 2175 
Q 691 2347 639 2423 
Q 588 2500 491 2517 
Q 394 2534 191 2534 
L 191 2759 
L 1119 2828 
L 1119 2203 
Q 1247 2478 1498 2653 
Q 1750 2828 2047 2828 
Q 2784 2828 2913 2228 
Q 3041 2497 3287 2662 
Q 3534 2828 3828 2828 
Q 4119 2828 4317 2734 
Q 4516 2641 4616 2448 
Q 4716 2256 4716 1966 
L 4716 428 
Q 4716 294 4858 259 
Q 5000 225 5216 225 
L 5216 0 
L 3750 0 
L 3750 225 
Q 3969 225 4109 259 
Q 4250 294 4250 428 
L 4250 1947 
Q 4250 2269 4159 2466 
Q 4069 2663 3788 2663 
Q 3419 2663 3178 2366 
Q 2938 2069 2938 1691 
L 2938 428 
Q 2938 294 3078 259 
Q 3219 225 3438 225 
L 3438 0 
L 1972 0 
L 1972 225 
Q 2191 225 2331 259 
Q 2472 294 2472 428 
L 2472 1947 
Q 2472 2259 2381 2461 
Q 2291 2663 2009 2663 
Q 1638 2663 1398 2366 
Q 1159 2069 1159 1691 
L 1159 428 
Q 1159 294 1300 259 
Q 1441 225 1656 225 
L 1656 0 
L 191 0 
z
" transform="scale(0.015625)"/>
       <path id="Cmr10-5d" d="M 141 -1600 
L 141 -1344 
L 763 -1344 
L 763 4544 
L 141 4544 
L 141 4800 
L 1019 4800 
L 1019 -1600 
L 141 -1600 
z
" transform="scale(0.015625)"/>
      </defs>
      <use xlink:href="#DejaVuSans-44" transform="translate(0 0.015625)"/>
      <use xlink:href="#DejaVuSans-69" transform="translate(77.001953 0.015625)"/>
      <use xlink:href="#DejaVuSans-73" transform="translate(104.785156 0.015625)"/>
      <use xlink:href="#DejaVuSans-74" transform="translate(156.884766 0.015625)"/>
      <use xlink:href="#DejaVuSans-61" transform="translate(196.09375 0.015625)"/>
      <use xlink:href="#DejaVuSans-6e" transform="translate(257.373047 0.015625)"/>
      <use xlink:href="#DejaVuSans-63" transform="translate(320.751953 0.015625)"/>
      <use xlink:href="#DejaVuSans-65" transform="translate(375.732422 0.015625)"/>
      <use xlink:href="#DejaVuSans-20" transform="translate(437.255859 0.015625)"/>
      <use xlink:href="#DejaVuSans-66" transform="translate(469.042969 0.015625)"/>
      <use xlink:href="#DejaVuSans-72" transform="translate(504.248047 0.015625)"/>
      <use xlink:href="#DejaVuSans-6f" transform="translate(545.361328 0.015625)"/>
      <use xlink:href="#DejaVuSans-6d" transform="translate(606.542969 0.015625)"/>
      <use xlink:href="#DejaVuSans-20" transform="translate(703.955078 0.015625)"/>
      <use xlink:href="#DejaVuSans-61" transform="translate(735.742188 0.015625)"/>
      <use xlink:href="#DejaVuSans-69" transform="translate(797.021484 0.015625)"/>
      <use xlink:href="#DejaVuSans-72" transform="translate(824.804688 0.015625)"/>
      <use xlink:href="#DejaVuSans-20" transform="translate(865.917969 0.015625)"/>
      <use xlink:href="#DejaVuSans-69" transform="translate(897.705078 0.015625)"/>
      <use xlink:href="#DejaVuSans-6e" transform="translate(925.488281 0.015625)"/>
      <use xlink:href="#DejaVuSans-74" transform="translate(988.867188 0.015625)"/>
      <use xlink:href="#DejaVuSans-65" transform="translate(1028.076172 0.015625)"/>
      <use xlink:href="#DejaVuSans-72" transform="translate(1089.599609 0.015625)"/>
      <use xlink:href="#DejaVuSans-66" transform="translate(1130.712891 0.015625)"/>
      <use xlink:href="#DejaVuSans-61" transform="translate(1165.917969 0.015625)"/>
      <use xlink:href="#DejaVuSans-63" transform="translate(1227.197266 0.015625)"/>
      <use xlink:href="#DejaVuSans-65" transform="translate(1282.177734 0.015625)"/>
      <use xlink:href="#DejaVuSans-2c" transform="translate(1343.701172 0.015625)"/>
      <use xlink:href="#DejaVuSans-20" transform="translate(1375.488281 0.015625)"/>
      <use xlink:href="#Cmr10-5b" transform="translate(1407.275391 0.015625)"/>
      <use xlink:href="#Cmmi10-b9" transform="translate(1434.960938 0.015625)"/>
      <use xlink:href="#Cmr10-6d" transform="translate(1495.166016 0.015625)"/>
      <use xlink:href="#Cmr10-5d" transform="translate(1578.466797 0.015625)"/>
     </g>
    </g>
   </g>
   <g id="matplotlib.axis_4">
    <g id="ytick_5">
     <g id="line2d_34">
      <path d="M 74.428632 508.32 
L 817.468632 508.32 
" clip-path="url(#pafae86f48d)" style="fill: none; stroke-dasharray: 1.85,0.8; stroke-dashoffset: 0; stroke: #0485d1; stroke-opacity: 0.2; stroke-width: 0.5"/>
     </g>
     <g id="line2d_35">
      <g>
       <use xlink:href="#m04503f0756" x="74.428632" y="508.32" style="stroke: #000000; stroke-width: 0.8"/>
      </g>
     </g>
     <g id="text_14">
      <!--   0 -->
      <g transform="translate(42.947382 516.678281) scale(0.22 -0.22)">
       <use xlink:href="#DejaVuSans-20"/>
       <use xlink:href="#DejaVuSans-20" transform="translate(31.787109 0)"/>
       <use xlink:href="#DejaVuSans-30" transform="translate(63.574219 0)"/>
      </g>
     </g>
    </g>
    <g id="ytick_6">
     <g id="line2d_36">
      <path d="M 74.428632 430.384762 
L 817.468632 430.384762 
" clip-path="url(#pafae86f48d)" style="fill: none; stroke-dasharray: 1.85,0.8; stroke-dashoffset: 0; stroke: #0485d1; stroke-opacity: 0.2; stroke-width: 0.5"/>
     </g>
     <g id="line2d_37">
      <g>
       <use xlink:href="#m04503f0756" x="74.428632" y="430.384762" style="stroke: #000000; stroke-width: 0.8"/>
      </g>
     </g>
     <g id="text_15">
      <!-- 100 -->
      <g transform="translate(28.936132 438.743044) scale(0.22 -0.22)">
       <use xlink:href="#DejaVuSans-31"/>
       <use xlink:href="#DejaVuSans-30" transform="translate(63.623047 0)"/>
       <use xlink:href="#DejaVuSans-30" transform="translate(127.246094 0)"/>
      </g>
     </g>
    </g>
    <g id="ytick_7">
     <g id="line2d_38">
      <path d="M 74.428632 352.449525 
L 817.468632 352.449525 
" clip-path="url(#pafae86f48d)" style="fill: none; stroke-dasharray: 1.85,0.8; stroke-dashoffset: 0; stroke: #0485d1; stroke-opacity: 0.2; stroke-width: 0.5"/>
     </g>
     <g id="line2d_39">
      <g>
       <use xlink:href="#m04503f0756" x="74.428632" y="352.449525" style="stroke: #000000; stroke-width: 0.8"/>
      </g>
     </g>
     <g id="text_16">
      <!-- 200 -->
      <g transform="translate(28.936132 360.807806) scale(0.22 -0.22)">
       <use xlink:href="#DejaVuSans-32"/>
       <use xlink:href="#DejaVuSans-30" transform="translate(63.623047 0)"/>
       <use xlink:href="#DejaVuSans-30" transform="translate(127.246094 0)"/>
      </g>
     </g>
    </g>
    <g id="text_17">
     <!-- Physical layer thickness [nm] -->
     <g transform="translate(21.124897 526.422367) rotate(-90) scale(0.18326 -0.18326)">
      <defs>
       <path id="DejaVuSans-50" d="M 1259 4147 
L 1259 2394 
L 2053 2394 
Q 2494 2394 2734 2622 
Q 2975 2850 2975 3272 
Q 2975 3691 2734 3919 
Q 2494 4147 2053 4147 
L 1259 4147 
z
M 628 4666 
L 2053 4666 
Q 2838 4666 3239 4311 
Q 3641 3956 3641 3272 
Q 3641 2581 3239 2228 
Q 2838 1875 2053 1875 
L 1259 1875 
L 1259 0 
L 628 0 
L 628 4666 
z
" transform="scale(0.015625)"/>
       <path id="DejaVuSans-68" d="M 3513 2113 
L 3513 0 
L 2938 0 
L 2938 2094 
Q 2938 2591 2744 2837 
Q 2550 3084 2163 3084 
Q 1697 3084 1428 2787 
Q 1159 2491 1159 1978 
L 1159 0 
L 581 0 
L 581 4863 
L 1159 4863 
L 1159 2956 
Q 1366 3272 1645 3428 
Q 1925 3584 2291 3584 
Q 2894 3584 3203 3211 
Q 3513 2838 3513 2113 
z
" transform="scale(0.015625)"/>
       <path id="DejaVuSans-79" d="M 2059 -325 
Q 1816 -950 1584 -1140 
Q 1353 -1331 966 -1331 
L 506 -1331 
L 506 -850 
L 844 -850 
Q 1081 -850 1212 -737 
Q 1344 -625 1503 -206 
L 1606 56 
L 191 3500 
L 800 3500 
L 1894 763 
L 2988 3500 
L 3597 3500 
L 2059 -325 
z
" transform="scale(0.015625)"/>
       <path id="DejaVuSans-6b" d="M 581 4863 
L 1159 4863 
L 1159 1991 
L 2875 3500 
L 3609 3500 
L 1753 1863 
L 3688 0 
L 2938 0 
L 1159 1709 
L 1159 0 
L 581 0 
L 581 4863 
z
" transform="scale(0.015625)"/>
       <path id="DejaVuSans-5b" d="M 550 4863 
L 1875 4863 
L 1875 4416 
L 1125 4416 
L 1125 -397 
L 1875 -397 
L 1875 -844 
L 550 -844 
L 550 4863 
z
" transform="scale(0.015625)"/>
       <path id="DejaVuSans-5d" d="M 1947 4863 
L 1947 -844 
L 622 -844 
L 622 -397 
L 1369 -397 
L 1369 4416 
L 622 4416 
L 622 4863 
L 1947 4863 
z
" transform="scale(0.015625)"/>
      </defs>
      <use xlink:href="#DejaVuSans-50"/>
      <use xlink:href="#DejaVuSans-68" transform="translate(60.302734 0)"/>
      <use xlink:href="#DejaVuSans-79" transform="translate(123.681641 0)"/>
      <use xlink:href="#DejaVuSans-73" transform="translate(182.861328 0)"/>
      <use xlink:href="#DejaVuSans-69" transform="translate(234.960938 0)"/>
      <use xlink:href="#DejaVuSans-63" transform="translate(262.744141 0)"/>
      <use xlink:href="#DejaVuSans-61" transform="translate(317.724609 0)"/>
      <use xlink:href="#DejaVuSans-6c" transform="translate(379.003906 0)"/>
      <use xlink:href="#DejaVuSans-20" transform="translate(406.787109 0)"/>
      <use xlink:href="#DejaVuSans-6c" transform="translate(438.574219 0)"/>
      <use xlink:href="#DejaVuSans-61" transform="translate(466.357422 0)"/>
      <use xlink:href="#DejaVuSans-79" transform="translate(527.636719 0)"/>
      <use xlink:href="#DejaVuSans-65" transform="translate(586.816406 0)"/>
      <use xlink:href="#DejaVuSans-72" transform="translate(648.339844 0)"/>
      <use xlink:href="#DejaVuSans-20" transform="translate(689.453125 0)"/>
      <use xlink:href="#DejaVuSans-74" transform="translate(721.240234 0)"/>
      <use xlink:href="#DejaVuSans-68" transform="translate(760.449219 0)"/>
      <use xlink:href="#DejaVuSans-69" transform="translate(823.828125 0)"/>
      <use xlink:href="#DejaVuSans-63" transform="translate(851.611328 0)"/>
      <use xlink:href="#DejaVuSans-6b" transform="translate(906.591797 0)"/>
      <use xlink:href="#DejaVuSans-6e" transform="translate(964.501953 0)"/>
      <use xlink:href="#DejaVuSans-65" transform="translate(1027.880859 0)"/>
      <use xlink:href="#DejaVuSans-73" transform="translate(1089.404297 0)"/>
      <use xlink:href="#DejaVuSans-73" transform="translate(1141.503906 0)"/>
      <use xlink:href="#DejaVuSans-20" transform="translate(1193.603516 0)"/>
      <use xlink:href="#DejaVuSans-5b" transform="translate(1225.390625 0)"/>
      <use xlink:href="#DejaVuSans-6e" transform="translate(1264.404297 0)"/>
      <use xlink:href="#DejaVuSans-6d" transform="translate(1327.783203 0)"/>
      <use xlink:href="#DejaVuSans-5d" transform="translate(1425.195312 0)"/>
     </g>
    </g>
   </g>
   <g id="patch_41">
    <path d="M 74.428632 508.32 
L 74.428632 276.200597 
" style="fill: none; stroke: #bcbcbc; stroke-width: 0.8; stroke-linejoin: miter; stroke-linecap: square"/>
   </g>
   <g id="patch_42">
    <path d="M 817.468632 508.32 
L 817.468632 276.200597 
" style="fill: none; stroke: #bcbcbc; stroke-width: 0.8; stroke-linejoin: miter; stroke-linecap: square"/>
   </g>
   <g id="patch_43">
    <path d="M 74.428632 508.32 
L 817.468632 508.32 
" style="fill: none; stroke: #bcbcbc; stroke-width: 0.8; stroke-linejoin: miter; stroke-linecap: square"/>
   </g>
   <g id="patch_44">
    <path d="M 74.428632 276.200597 
L 817.468632 276.200597 
" style="fill: none; stroke: #bcbcbc; stroke-width: 0.8; stroke-linejoin: miter; stroke-linecap: square"/>
   </g>
   <g id="legend_1">
    <g id="patch_45">
     <path d="M 87.256832 334.213841 
L 146.853557 334.213841 
Q 150.518757 334.213841 150.518757 330.548641 
L 150.518757 289.028797 
Q 150.518757 285.363597 146.853557 285.363597 
L 87.256832 285.363597 
Q 83.591632 285.363597 83.591632 289.028797 
L 83.591632 330.548641 
Q 83.591632 334.213841 87.256832 334.213841 
z
" style="fill: #eeeeee; opacity: 0.8; stroke: #cccccc; stroke-width: 0.5; stroke-linejoin: miter"/>
    </g>
    <g id="patch_46">
     <path d="M 87.256832 302.953694 
L 123.908832 302.953694 
L 123.908832 290.125494 
L 87.256832 290.125494 
z
" style="fill: #01f9c6; opacity: 0.4"/>
    </g>
    <g id="text_18">
     <!-- L -->
     <g transform="translate(133.071832 302.953694) scale(0.18326 -0.18326)">
      <defs>
       <path id="DejaVuSans-4c" d="M 628 4666 
L 1259 4666 
L 1259 531 
L 3531 531 
L 3531 0 
L 628 0 
L 628 4666 
z
" transform="scale(0.015625)"/>
      </defs>
      <use xlink:href="#DejaVuSans-4c"/>
     </g>
    </g>
    <g id="patch_47">
     <path d="M 87.256832 326.737405 
L 123.908832 326.737405 
L 123.908832 313.909205 
L 87.256832 313.909205 
z
" style="fill: #36013f; opacity: 0.4"/>
    </g>
    <g id="text_19">
     <!-- H -->
     <g transform="translate(133.071832 326.737405) scale(0.18326 -0.18326)">
      <defs>
       <path id="DejaVuSans-48" d="M 628 4666 
L 1259 4666 
L 1259 2753 
L 3553 2753 
L 3553 4666 
L 4184 4666 
L 4184 0 
L 3553 0 
L 3553 2222 
L 1259 2222 
L 1259 0 
L 628 0 
L 628 4666 
z
" transform="scale(0.015625)"/>
      </defs>
      <use xlink:href="#DejaVuSans-48"/>
     </g>
    </g>
   </g>
  </g>
  <g id="text_20">
   <!-- H:L coating electric field -->
   <g transform="translate(268.164882 27.259875) scale(0.264 -0.264)">
    <defs>
     <path id="DejaVuSans-3a" d="M 750 794 
L 1409 794 
L 1409 0 
L 750 0 
L 750 794 
z
M 750 3309 
L 1409 3309 
L 1409 2516 
L 750 2516 
L 750 3309 
z
" transform="scale(0.015625)"/>
     <path id="DejaVuSans-67" d="M 2906 1791 
Q 2906 2416 2648 2759 
Q 2391 3103 1925 3103 
Q 1463 3103 1205 2759 
Q 947 2416 947 1791 
Q 947 1169 1205 825 
Q 1463 481 1925 481 
Q 2391 481 2648 825 
Q 2906 1169 2906 1791 
z
M 3481 434 
Q 3481 -459 3084 -895 
Q 2688 -1331 1869 -1331 
Q 1566 -1331 1297 -1286 
Q 1028 -1241 775 -1147 
L 775 -588 
Q 1028 -725 1275 -790 
Q 1522 -856 1778 -856 
Q 2344 -856 2625 -561 
Q 2906 -266 2906 331 
L 2906 616 
Q 2728 306 2450 153 
Q 2172 0 1784 0 
Q 1141 0 747 490 
Q 353 981 353 1791 
Q 353 2603 747 3093 
Q 1141 3584 1784 3584 
Q 2172 3584 2450 3431 
Q 2728 3278 2906 2969 
L 2906 3500 
L 3481 3500 
L 3481 434 
z
" transform="scale(0.015625)"/>
    </defs>
    <use xlink:href="#DejaVuSans-48"/>
    <use xlink:href="#DejaVuSans-3a" transform="translate(75.195312 0)"/>
    <use xlink:href="#DejaVuSans-4c" transform="translate(108.886719 0)"/>
    <use xlink:href="#DejaVuSans-20" transform="translate(164.599609 0)"/>
    <use xlink:href="#DejaVuSans-63" transform="translate(196.386719 0)"/>
    <use xlink:href="#DejaVuSans-6f" transform="translate(251.367188 0)"/>
    <use xlink:href="#DejaVuSans-61" transform="translate(312.548828 0)"/>
    <use xlink:href="#DejaVuSans-74" transform="translate(373.828125 0)"/>
    <use xlink:href="#DejaVuSans-69" transform="translate(413.037109 0)"/>
    <use xlink:href="#DejaVuSans-6e" transform="translate(440.820312 0)"/>
    <use xlink:href="#DejaVuSans-67" transform="translate(504.199219 0)"/>
    <use xlink:href="#DejaVuSans-20" transform="translate(567.675781 0)"/>
    <use xlink:href="#DejaVuSans-65" transform="translate(599.462891 0)"/>
    <use xlink:href="#DejaVuSans-6c" transform="translate(660.986328 0)"/>
    <use xlink:href="#DejaVuSans-65" transform="translate(688.769531 0)"/>
    <use xlink:href="#DejaVuSans-63" transform="translate(750.292969 0)"/>
    <use xlink:href="#DejaVuSans-74" transform="translate(805.273438 0)"/>
    <use xlink:href="#DejaVuSans-72" transform="translate(844.482422 0)"/>
    <use xlink:href="#DejaVuSans-69" transform="translate(885.595703 0)"/>
    <use xlink:href="#DejaVuSans-63" transform="translate(913.378906 0)"/>
    <use xlink:href="#DejaVuSans-20" transform="translate(968.359375 0)"/>
    <use xlink:href="#DejaVuSans-66" transform="translate(1000.146484 0)"/>
    <use xlink:href="#DejaVuSans-69" transform="translate(1035.351562 0)"/>
    <use xlink:href="#DejaVuSans-65" transform="translate(1063.134766 0)"/>
    <use xlink:href="#DejaVuSans-6c" transform="translate(1124.658203 0)"/>
    <use xlink:href="#DejaVuSans-64" transform="translate(1152.441406 0)"/>
   </g>
  </g>
 </g>
 <defs>
  <clipPath id="p83e0887ee8">
   <rect x="74.428632" y="41.76" width="743.04" height="232.119403"/>
  </clipPath>
  <clipPath id="pafae86f48d">
   <rect x="74.428632" y="276.200597" width="743.04" height="232.119403"/>
  </clipPath>
 </defs>
</svg>
