<?xml version="1.0" encoding="utf-8" standalone="no"?>
<!DOCTYPE svg PUBLIC "-//W3C//DTD SVG 1.1//EN"
  "http://www.w3.org/Graphics/SVG/1.1/DTD/svg11.dtd">
<svg xmlns:xlink="http://www.w3.org/1999/xlink" width="520.024967pt" height="511.281951pt" viewBox="0 0 520.024967 511.281951" xmlns="http://www.w3.org/2000/svg" version="1.1">
 <metadata>
  <rdf:RDF xmlns:dc="http://purl.org/dc/elements/1.1/" xmlns:cc="http://creativecommons.org/ns#" xmlns:rdf="http://www.w3.org/1999/02/22-rdf-syntax-ns#">
   <cc:Work>
    <dc:type rdf:resource="http://purl.org/dc/dcmitype/StillImage"/>
    <dc:date>2026-03-06T08:37:53.767996</dc:date>
    <dc:format>image/svg+xml</dc:format>
    <dc:creator>
     <cc:Agent>
      <dc:title>Matplotlib v3.10.8, https://matplotlib.org/</dc:title>
     </cc:Agent>
    </dc:creator>
   </cc:Work>
  </rdf:RDF>
 </metadata>
 <defs>
  <style type="text/css">*{stroke-linejoin: round; stroke-linecap: butt}</style>
 </defs>
 <g id="figure_1">
  <g id="patch_1">
   <path d="M 0 511.281951 
L 520.024967 511.281951 
L 520.024967 0 
L 0 0 
L 0 511.281951 
z
" style="fill: none"/>
  </g>
  <g id="axes_1">
   <g id="patch_2">
    <path d="M 474.278404 266.999257 
C 474.278404 237.878001 468.542152 209.039912 457.397929 182.135379 
C 446.253707 155.230846 429.918242 130.783095 409.326404 110.191257 
C 388.734566 89.599419 364.286815 73.263954 337.382282 62.119732 
C 310.477749 50.975509 281.639661 45.239257 252.518404 45.239257 
C 223.397148 45.239257 194.559059 50.975509 167.654526 62.119732 
C 140.749994 73.263954 116.302242 89.599419 95.710404 110.191257 
C 75.118567 130.783095 58.783101 155.230846 47.638879 182.135379 
C 36.494657 209.039912 30.758404 237.878001 30.758404 266.999257 
C 30.758404 296.120513 36.494657 324.958602 47.638879 351.863135 
C 58.783101 378.767668 75.118567 403.215419 95.710404 423.807257 
C 116.302242 444.399095 140.749994 460.73456 167.654526 471.878782 
C 194.559059 483.023004 223.397148 488.759257 252.518404 488.759257 
C 281.639661 488.759257 310.477749 483.023004 337.382282 471.878782 
C 364.286815 460.73456 388.734566 444.399095 409.326404 423.807257 
C 429.918242 403.215419 446.253707 378.767668 457.397929 351.863135 
C 468.542152 324.958602 474.278404 296.120513 474.278404 266.999257 
M 252.518404 266.999257 
C 252.518404 266.999257 252.518404 266.999257 252.518404 266.999257 
C 252.518404 266.999257 252.518404 266.999257 252.518404 266.999257 
C 252.518404 266.999257 252.518404 266.999257 252.518404 266.999257 
C 252.518404 266.999257 252.518404 266.999257 252.518404 266.999257 
C 252.518404 266.999257 252.518404 266.999257 252.518404 266.999257 
C 252.518404 266.999257 252.518404 266.999257 252.518404 266.999257 
C 252.518404 266.999257 252.518404 266.999257 252.518404 266.999257 
C 252.518404 266.999257 252.518404 266.999257 252.518404 266.999257 
C 252.518404 266.999257 252.518404 266.999257 252.518404 266.999257 
C 252.518404 266.999257 252.518404 266.999257 252.518404 266.999257 
C 252.518404 266.999257 252.518404 266.999257 252.518404 266.999257 
C 252.518404 266.999257 252.518404 266.999257 252.518404 266.999257 
C 252.518404 266.999257 252.518404 266.999257 252.518404 266.999257 
C 252.518404 266.999257 252.518404 266.999257 252.518404 266.999257 
C 252.518404 266.999257 252.518404 266.999257 252.518404 266.999257 
C 252.518404 266.999257 252.518404 266.999257 252.518404 266.999257 
L 252.518404 266.999257 
z
" style="fill: none"/>
   </g>
   <g id="patch_3">
    <path d="M 354.642658 266.999257 
L 378.775118 108.678345 
L 229.79362 167.435471 
L 160.507631 222.689204 
L 146.433528 318.087041 
L 221.716578 401.950877 
L 343.502304 381.089459 
z
" clip-path="url(#pfdd3c08c75)" style="fill: #daa520; opacity: 0.2; stroke: #daa520; stroke-width: 0.5; stroke-linejoin: miter"/>
   </g>
   <g id="matplotlib.axis_1">
    <g id="xtick_1">
     <g id="line2d_1">
      <path d="M 252.518404 266.999257 
L 474.278404 266.999257 
" clip-path="url(#pfdd3c08c75)" style="fill: none; stroke-dasharray: 1.85,0.8; stroke-dashoffset: 0; stroke: #0485d1; stroke-opacity: 0.2; stroke-width: 0.5"/>
     </g>
     <g id="text_1">
      <!-- Esurf -->
      <g transform="translate(456.731842 273.069882) scale(0.22 -0.22)">
       <defs>
        <path id="DejaVuSans-45" d="M 628 4666 
L 3578 4666 
L 3578 4134 
L 1259 4134 
L 1259 2753 
L 3481 2753 
L 3481 2222 
L 1259 2222 
L 1259 531 
L 3634 531 
L 3634 0 
L 628 0 
L 628 4666 
z
" transform="scale(0.015625)"/>
        <path id="DejaVuSans-73" d="M 2834 3397 
L 2834 2853 
Q 2591 2978 2328 3040 
Q 2066 3103 1784 3103 
Q 1356 3103 1142 2972 
Q 928 2841 928 2578 
Q 928 2378 1081 2264 
Q 1234 2150 1697 2047 
L 1894 2003 
Q 2506 1872 2764 1633 
Q 3022 1394 3022 966 
Q 3022 478 2636 193 
Q 2250 -91 1575 -91 
Q 1294 -91 989 -36 
Q 684 19 347 128 
L 347 722 
Q 666 556 975 473 
Q 1284 391 1588 391 
Q 1994 391 2212 530 
Q 2431 669 2431 922 
Q 2431 1156 2273 1281 
Q 2116 1406 1581 1522 
L 1381 1569 
Q 847 1681 609 1914 
Q 372 2147 372 2553 
Q 372 3047 722 3315 
Q 1072 3584 1716 3584 
Q 2034 3584 2315 3537 
Q 2597 3491 2834 3397 
z
" transform="scale(0.015625)"/>
        <path id="DejaVuSans-75" d="M 544 1381 
L 544 3500 
L 1119 3500 
L 1119 1403 
Q 1119 906 1312 657 
Q 1506 409 1894 409 
Q 2359 409 2629 706 
Q 2900 1003 2900 1516 
L 2900 3500 
L 3475 3500 
L 3475 0 
L 2900 0 
L 2900 538 
Q 2691 219 2414 64 
Q 2138 -91 1772 -91 
Q 1169 -91 856 284 
Q 544 659 544 1381 
z
M 1991 3584 
L 1991 3584 
z
" transform="scale(0.015625)"/>
        <path id="DejaVuSans-72" d="M 2631 2963 
Q 2534 3019 2420 3045 
Q 2306 3072 2169 3072 
Q 1681 3072 1420 2755 
Q 1159 2438 1159 1844 
L 1159 0 
L 581 0 
L 581 3500 
L 1159 3500 
L 1159 2956 
Q 1341 3275 1631 3429 
Q 1922 3584 2338 3584 
Q 2397 3584 2469 3576 
Q 2541 3569 2628 3553 
L 2631 2963 
z
" transform="scale(0.015625)"/>
        <path id="DejaVuSans-66" d="M 2375 4863 
L 2375 4384 
L 1825 4384 
Q 1516 4384 1395 4259 
Q 1275 4134 1275 3809 
L 1275 3500 
L 2222 3500 
L 2222 3053 
L 1275 3053 
L 1275 0 
L 697 0 
L 697 3053 
L 147 3053 
L 147 3500 
L 697 3500 
L 697 3744 
Q 697 4328 969 4595 
Q 1241 4863 1831 4863 
L 2375 4863 
z
" transform="scale(0.015625)"/>
       </defs>
       <use xlink:href="#DejaVuSans-45"/>
       <use xlink:href="#DejaVuSans-73" transform="translate(63.183594 0)"/>
       <use xlink:href="#DejaVuSans-75" transform="translate(115.283203 0)"/>
       <use xlink:href="#DejaVuSans-72" transform="translate(178.662109 0)"/>
       <use xlink:href="#DejaVuSans-66" transform="translate(219.775391 0)"/>
      </g>
     </g>
    </g>
    <g id="xtick_2">
     <g id="line2d_2">
      <path d="M 252.518404 266.999257 
L 390.783503 93.620307 
" clip-path="url(#pfdd3c08c75)" style="fill: none; stroke-dasharray: 1.85,0.8; stroke-dashoffset: 0; stroke: #0485d1; stroke-opacity: 0.2; stroke-width: 0.5"/>
     </g>
     <g id="text_2">
      <!-- Trans1 -->
      <g transform="translate(361.270771 91.481702) scale(0.22 -0.22)">
       <defs>
        <path id="DejaVuSans-54" d="M -19 4666 
L 3928 4666 
L 3928 4134 
L 2272 4134 
L 2272 0 
L 1638 0 
L 1638 4134 
L -19 4134 
L -19 4666 
z
" transform="scale(0.015625)"/>
        <path id="DejaVuSans-61" d="M 2194 1759 
Q 1497 1759 1228 1600 
Q 959 1441 959 1056 
Q 959 750 1161 570 
Q 1363 391 1709 391 
Q 2188 391 2477 730 
Q 2766 1069 2766 1631 
L 2766 1759 
L 2194 1759 
z
M 3341 1997 
L 3341 0 
L 2766 0 
L 2766 531 
Q 2569 213 2275 61 
Q 1981 -91 1556 -91 
Q 1019 -91 701 211 
Q 384 513 384 1019 
Q 384 1609 779 1909 
Q 1175 2209 1959 2209 
L 2766 2209 
L 2766 2266 
Q 2766 2663 2505 2880 
Q 2244 3097 1772 3097 
Q 1472 3097 1187 3025 
Q 903 2953 641 2809 
L 641 3341 
Q 956 3463 1253 3523 
Q 1550 3584 1831 3584 
Q 2591 3584 2966 3190 
Q 3341 2797 3341 1997 
z
" transform="scale(0.015625)"/>
        <path id="DejaVuSans-6e" d="M 3513 2113 
L 3513 0 
L 2938 0 
L 2938 2094 
Q 2938 2591 2744 2837 
Q 2550 3084 2163 3084 
Q 1697 3084 1428 2787 
Q 1159 2491 1159 1978 
L 1159 0 
L 581 0 
L 581 3500 
L 1159 3500 
L 1159 2956 
Q 1366 3272 1645 3428 
Q 1925 3584 2291 3584 
Q 2894 3584 3203 3211 
Q 3513 2838 3513 2113 
z
" transform="scale(0.015625)"/>
        <path id="DejaVuSans-31" d="M 794 531 
L 1825 531 
L 1825 4091 
L 703 3866 
L 703 4441 
L 1819 4666 
L 2450 4666 
L 2450 531 
L 3481 531 
L 3481 0 
L 794 0 
L 794 531 
z
" transform="scale(0.015625)"/>
       </defs>
       <use xlink:href="#DejaVuSans-54"/>
       <use xlink:href="#DejaVuSans-72" transform="translate(46.333984 0)"/>
       <use xlink:href="#DejaVuSans-61" transform="translate(87.447266 0)"/>
       <use xlink:href="#DejaVuSans-6e" transform="translate(148.726562 0)"/>
       <use xlink:href="#DejaVuSans-73" transform="translate(212.105469 0)"/>
       <use xlink:href="#DejaVuSans-31" transform="translate(264.205078 0)"/>
      </g>
     </g>
    </g>
    <g id="xtick_3">
     <g id="line2d_3">
      <path d="M 252.518404 266.999257 
L 203.172162 50.799243 
" clip-path="url(#pfdd3c08c75)" style="fill: none; stroke-dasharray: 1.85,0.8; stroke-dashoffset: 0; stroke: #0485d1; stroke-opacity: 0.2; stroke-width: 0.5"/>
     </g>
     <g id="text_3">
      <!-- Trans2 -->
      <g transform="translate(164.776317 46.633125) scale(0.22 -0.22)">
       <defs>
        <path id="DejaVuSans-32" d="M 1228 531 
L 3431 531 
L 3431 0 
L 469 0 
L 469 531 
Q 828 903 1448 1529 
Q 2069 2156 2228 2338 
Q 2531 2678 2651 2914 
Q 2772 3150 2772 3378 
Q 2772 3750 2511 3984 
Q 2250 4219 1831 4219 
Q 1534 4219 1204 4116 
Q 875 4013 500 3803 
L 500 4441 
Q 881 4594 1212 4672 
Q 1544 4750 1819 4750 
Q 2544 4750 2975 4387 
Q 3406 4025 3406 3419 
Q 3406 3131 3298 2873 
Q 3191 2616 2906 2266 
Q 2828 2175 2409 1742 
Q 1991 1309 1228 531 
z
" transform="scale(0.015625)"/>
       </defs>
       <use xlink:href="#DejaVuSans-54"/>
       <use xlink:href="#DejaVuSans-72" transform="translate(46.333984 0)"/>
       <use xlink:href="#DejaVuSans-61" transform="translate(87.447266 0)"/>
       <use xlink:href="#DejaVuSans-6e" transform="translate(148.726562 0)"/>
       <use xlink:href="#DejaVuSans-73" transform="translate(212.105469 0)"/>
       <use xlink:href="#DejaVuSans-32" transform="translate(264.205078 0)"/>
      </g>
     </g>
    </g>
    <g id="xtick_4">
     <g id="line2d_4">
      <path d="M 252.518404 266.999257 
L 52.719548 170.781199 
" clip-path="url(#pfdd3c08c75)" style="fill: none; stroke-dasharray: 1.85,0.8; stroke-dashoffset: 0; stroke: #0485d1; stroke-opacity: 0.2; stroke-width: 0.5"/>
     </g>
     <g id="text_4">
      <!-- Trans3 -->
      <g transform="translate(7.2 172.296045) scale(0.22 -0.22)">
       <defs>
        <path id="DejaVuSans-33" d="M 2597 2516 
Q 3050 2419 3304 2112 
Q 3559 1806 3559 1356 
Q 3559 666 3084 287 
Q 2609 -91 1734 -91 
Q 1441 -91 1130 -33 
Q 819 25 488 141 
L 488 750 
Q 750 597 1062 519 
Q 1375 441 1716 441 
Q 2309 441 2620 675 
Q 2931 909 2931 1356 
Q 2931 1769 2642 2001 
Q 2353 2234 1838 2234 
L 1294 2234 
L 1294 2753 
L 1863 2753 
Q 2328 2753 2575 2939 
Q 2822 3125 2822 3475 
Q 2822 3834 2567 4026 
Q 2313 4219 1838 4219 
Q 1578 4219 1281 4162 
Q 984 4106 628 3988 
L 628 4550 
Q 988 4650 1302 4700 
Q 1616 4750 1894 4750 
Q 2613 4750 3031 4423 
Q 3450 4097 3450 3541 
Q 3450 3153 3228 2886 
Q 3006 2619 2597 2516 
z
" transform="scale(0.015625)"/>
       </defs>
       <use xlink:href="#DejaVuSans-54"/>
       <use xlink:href="#DejaVuSans-72" transform="translate(46.333984 0)"/>
       <use xlink:href="#DejaVuSans-61" transform="translate(87.447266 0)"/>
       <use xlink:href="#DejaVuSans-6e" transform="translate(148.726562 0)"/>
       <use xlink:href="#DejaVuSans-73" transform="translate(212.105469 0)"/>
       <use xlink:href="#DejaVuSans-33" transform="translate(264.205078 0)"/>
      </g>
     </g>
    </g>
    <g id="xtick_5">
     <g id="line2d_5">
      <path d="M 252.518404 266.999257 
L 52.719548 363.217315 
" clip-path="url(#pfdd3c08c75)" style="fill: none; stroke-dasharray: 1.85,0.8; stroke-dashoffset: 0; stroke: #0485d1; stroke-opacity: 0.2; stroke-width: 0.5"/>
     </g>
     <g id="text_5">
      <!-- dTdd -->
      <g transform="translate(15.590938 373.843719) scale(0.22 -0.22)">
       <defs>
        <path id="DejaVuSans-64" d="M 2906 2969 
L 2906 4863 
L 3481 4863 
L 3481 0 
L 2906 0 
L 2906 525 
Q 2725 213 2448 61 
Q 2172 -91 1784 -91 
Q 1150 -91 751 415 
Q 353 922 353 1747 
Q 353 2572 751 3078 
Q 1150 3584 1784 3584 
Q 2172 3584 2448 3432 
Q 2725 3281 2906 2969 
z
M 947 1747 
Q 947 1113 1208 752 
Q 1469 391 1925 391 
Q 2381 391 2643 752 
Q 2906 1113 2906 1747 
Q 2906 2381 2643 2742 
Q 2381 3103 1925 3103 
Q 1469 3103 1208 2742 
Q 947 2381 947 1747 
z
" transform="scale(0.015625)"/>
       </defs>
       <use xlink:href="#DejaVuSans-64"/>
       <use xlink:href="#DejaVuSans-54" transform="translate(63.476562 0)"/>
       <use xlink:href="#DejaVuSans-64" transform="translate(124.560547 0)"/>
       <use xlink:href="#DejaVuSans-64" transform="translate(188.037109 0)"/>
      </g>
     </g>
    </g>
    <g id="xtick_6">
     <g id="line2d_6">
      <path d="M 252.518404 266.999257 
L 203.172162 483.199271 
" clip-path="url(#pfdd3c08c75)" style="fill: none; stroke-dasharray: 1.85,0.8; stroke-dashoffset: 0; stroke: #0485d1; stroke-opacity: 0.2; stroke-width: 0.5"/>
     </g>
     <g id="text_6">
      <!-- dTdnH -->
      <g transform="translate(164.906942 499.506639) scale(0.22 -0.22)">
       <defs>
        <path id="DejaVuSans-48" d="M 628 4666 
L 1259 4666 
L 1259 2753 
L 3553 2753 
L 3553 4666 
L 4184 4666 
L 4184 0 
L 3553 0 
L 3553 2222 
L 1259 2222 
L 1259 0 
L 628 0 
L 628 4666 
z
" transform="scale(0.015625)"/>
       </defs>
       <use xlink:href="#DejaVuSans-64"/>
       <use xlink:href="#DejaVuSans-54" transform="translate(63.476562 0)"/>
       <use xlink:href="#DejaVuSans-64" transform="translate(124.560547 0)"/>
       <use xlink:href="#DejaVuSans-6e" transform="translate(188.037109 0)"/>
       <use xlink:href="#DejaVuSans-48" transform="translate(251.416016 0)"/>
      </g>
     </g>
    </g>
    <g id="xtick_7">
     <g id="line2d_7">
      <path d="M 252.518404 266.999257 
L 390.783503 440.378206 
" clip-path="url(#pfdd3c08c75)" style="fill: none; stroke-dasharray: 1.85,0.8; stroke-dashoffset: 0; stroke: #0485d1; stroke-opacity: 0.2; stroke-width: 0.5"/>
     </g>
     <g id="text_7">
      <!-- dTdnL -->
      <g transform="translate(363.544677 454.658062) scale(0.22 -0.22)">
       <defs>
        <path id="DejaVuSans-4c" d="M 628 4666 
L 1259 4666 
L 1259 531 
L 3531 531 
L 3531 0 
L 628 0 
L 628 4666 
z
" transform="scale(0.015625)"/>
       </defs>
       <use xlink:href="#DejaVuSans-64"/>
       <use xlink:href="#DejaVuSans-54" transform="translate(63.476562 0)"/>
       <use xlink:href="#DejaVuSans-64" transform="translate(124.560547 0)"/>
       <use xlink:href="#DejaVuSans-6e" transform="translate(188.037109 0)"/>
       <use xlink:href="#DejaVuSans-4c" transform="translate(251.416016 0)"/>
      </g>
     </g>
    </g>
   </g>
   <g id="matplotlib.axis_2">
    <g id="ytick_1">
     <g id="line2d_8">
      <path d="M 296.870404 266.999257 
C 296.870404 261.175006 295.723154 255.407388 293.494309 250.026481 
C 291.265465 244.645575 287.998372 239.756024 283.880004 235.637657 
C 279.761637 231.519289 274.872086 228.252196 269.49118 226.023352 
C 264.110273 223.794507 258.342656 222.647257 252.518404 222.647257 
C 246.694153 222.647257 240.926535 223.794507 235.545629 226.023352 
C 230.164722 228.252196 225.275172 231.519289 221.156804 235.637657 
C 217.038437 239.756024 213.771344 244.645575 211.542499 250.026481 
C 209.313655 255.407388 208.166404 261.175006 208.166404 266.999257 
C 208.166404 272.823508 209.313655 278.591126 211.542499 283.972032 
C 213.771344 289.352939 217.038437 294.242489 221.156804 298.360857 
C 225.275172 302.479224 230.164722 305.746317 235.545629 307.975162 
C 240.926535 310.204006 246.694153 311.351257 252.518404 311.351257 
C 258.342656 311.351257 264.110273 310.204006 269.49118 307.975162 
C 274.872086 305.746317 279.761637 302.479224 283.880004 298.360857 
C 287.998372 294.242489 291.265465 289.352939 293.494309 283.972032 
C 295.723154 278.591126 296.870404 272.823508 296.870404 266.999257 
" clip-path="url(#pfdd3c08c75)" style="fill: none; stroke-dasharray: 1.85,0.8; stroke-dashoffset: 0; stroke: #0485d1; stroke-opacity: 0.2; stroke-width: 0.5"/>
     </g>
     <g id="text_8">
      <!-- 2 -->
      <g transform="translate(293.494309 245.451169) scale(0.22 -0.22)">
       <use xlink:href="#DejaVuSans-32"/>
      </g>
     </g>
    </g>
    <g id="ytick_2">
     <g id="line2d_9">
      <path d="M 341.222404 266.999257 
C 341.222404 255.350754 338.927903 243.815519 334.470214 233.053706 
C 330.012525 222.291893 323.478339 212.512792 315.241604 204.276057 
C 307.004869 196.039322 297.225769 189.505136 286.463955 185.047447 
C 275.702142 180.589758 264.166907 178.295257 252.518404 178.295257 
C 240.869902 178.295257 229.334666 180.589758 218.572853 185.047447 
C 207.81104 189.505136 198.031939 196.039322 189.795204 204.276057 
C 181.558469 212.512792 175.024283 222.291893 170.566594 233.053706 
C 166.108905 243.815519 163.814404 255.350754 163.814404 266.999257 
C 163.814404 278.647759 166.108905 290.182995 170.566594 300.944808 
C 175.024283 311.706621 181.558469 321.485722 189.795204 329.722457 
C 198.031939 337.959192 207.81104 344.493378 218.572853 348.951067 
C 229.334666 353.408756 240.869902 355.703257 252.518404 355.703257 
C 264.166907 355.703257 275.702142 353.408756 286.463955 348.951067 
C 297.225769 344.493378 307.004869 337.959192 315.241604 329.722457 
C 323.478339 321.485722 330.012525 311.706621 334.470214 300.944808 
C 338.927903 290.182995 341.222404 278.647759 341.222404 266.999257 
" clip-path="url(#pfdd3c08c75)" style="fill: none; stroke-dasharray: 1.85,0.8; stroke-dashoffset: 0; stroke: #0485d1; stroke-opacity: 0.2; stroke-width: 0.5"/>
     </g>
     <g id="text_9">
      <!-- 4 -->
      <g transform="translate(334.470214 228.478393) scale(0.22 -0.22)">
       <defs>
        <path id="DejaVuSans-34" d="M 2419 4116 
L 825 1625 
L 2419 1625 
L 2419 4116 
z
M 2253 4666 
L 3047 4666 
L 3047 1625 
L 3713 1625 
L 3713 1100 
L 3047 1100 
L 3047 0 
L 2419 0 
L 2419 1100 
L 313 1100 
L 313 1709 
L 2253 4666 
z
" transform="scale(0.015625)"/>
       </defs>
       <use xlink:href="#DejaVuSans-34"/>
      </g>
     </g>
    </g>
    <g id="ytick_3">
     <g id="line2d_10">
      <path d="M 385.574404 266.999257 
C 385.574404 249.526503 382.132653 232.22365 375.446119 216.08093 
C 368.759586 199.93821 358.958307 185.26956 346.603204 172.914457 
C 334.248101 160.559354 319.579451 150.758075 303.436731 144.071542 
C 287.294011 137.385008 269.991158 133.943257 252.518404 133.943257 
C 235.04565 133.943257 217.742797 137.385008 201.600077 144.071542 
C 185.457358 150.758075 170.788707 160.559354 158.433604 172.914457 
C 146.078502 185.26956 136.277223 199.93821 129.590689 216.08093 
C 122.904156 232.22365 119.462404 249.526503 119.462404 266.999257 
C 119.462404 284.472011 122.904156 301.774864 129.590689 317.917584 
C 136.277223 334.060303 146.078502 348.728954 158.433604 361.084057 
C 170.788707 373.439159 185.457358 383.240439 201.600077 389.926972 
C 217.742797 396.613505 235.04565 400.055257 252.518404 400.055257 
C 269.991158 400.055257 287.294011 396.613505 303.436731 389.926972 
C 319.579451 383.240439 334.248101 373.439159 346.603204 361.084057 
C 358.958307 348.728954 368.759586 334.060303 375.446119 317.917584 
C 382.132653 301.774864 385.574404 284.472011 385.574404 266.999257 
" clip-path="url(#pfdd3c08c75)" style="fill: none; stroke-dasharray: 1.85,0.8; stroke-dashoffset: 0; stroke: #0485d1; stroke-opacity: 0.2; stroke-width: 0.5"/>
     </g>
     <g id="text_10">
      <!-- 6 -->
      <g transform="translate(375.446119 211.505618) scale(0.22 -0.22)">
       <defs>
        <path id="DejaVuSans-36" d="M 2113 2584 
Q 1688 2584 1439 2293 
Q 1191 2003 1191 1497 
Q 1191 994 1439 701 
Q 1688 409 2113 409 
Q 2538 409 2786 701 
Q 3034 994 3034 1497 
Q 3034 2003 2786 2293 
Q 2538 2584 2113 2584 
z
M 3366 4563 
L 3366 3988 
Q 3128 4100 2886 4159 
Q 2644 4219 2406 4219 
Q 1781 4219 1451 3797 
Q 1122 3375 1075 2522 
Q 1259 2794 1537 2939 
Q 1816 3084 2150 3084 
Q 2853 3084 3261 2657 
Q 3669 2231 3669 1497 
Q 3669 778 3244 343 
Q 2819 -91 2113 -91 
Q 1303 -91 875 529 
Q 447 1150 447 2328 
Q 447 3434 972 4092 
Q 1497 4750 2381 4750 
Q 2619 4750 2861 4703 
Q 3103 4656 3366 4563 
z
" transform="scale(0.015625)"/>
       </defs>
       <use xlink:href="#DejaVuSans-36"/>
      </g>
     </g>
    </g>
    <g id="ytick_4">
     <g id="line2d_11">
      <path d="M 429.926404 266.999257 
C 429.926404 243.702252 425.337402 220.631781 416.422024 199.108155 
C 407.506646 177.584528 394.438274 158.026327 377.964804 141.552857 
C 361.491334 125.079387 341.933133 112.011015 320.409507 103.095637 
C 298.88588 94.180259 275.815409 89.591257 252.518404 89.591257 
C 229.221399 89.591257 206.150928 94.180259 184.627302 103.095637 
C 163.103676 112.011015 143.545475 125.079387 127.072004 141.552857 
C 110.598534 158.026327 97.530162 177.584528 88.614784 199.108155 
C 79.699406 220.631781 75.110404 243.702252 75.110404 266.999257 
C 75.110404 290.296262 79.699406 313.366733 88.614784 334.890359 
C 97.530162 356.413985 110.598534 375.972186 127.072004 392.445657 
C 143.545475 408.919127 163.103676 421.987499 184.627302 430.902877 
C 206.150928 439.818255 229.221399 444.407257 252.518404 444.407257 
C 275.815409 444.407257 298.88588 439.818255 320.409507 430.902877 
C 341.933133 421.987499 361.491334 408.919127 377.964804 392.445657 
C 394.438274 375.972186 407.506646 356.413985 416.422024 334.890359 
C 425.337402 313.366733 429.926404 290.296262 429.926404 266.999257 
" clip-path="url(#pfdd3c08c75)" style="fill: none; stroke-dasharray: 1.85,0.8; stroke-dashoffset: 0; stroke: #0485d1; stroke-opacity: 0.2; stroke-width: 0.5"/>
     </g>
     <g id="text_11">
      <!-- 8 -->
      <g transform="translate(416.422024 194.532842) scale(0.22 -0.22)">
       <defs>
        <path id="DejaVuSans-38" d="M 2034 2216 
Q 1584 2216 1326 1975 
Q 1069 1734 1069 1313 
Q 1069 891 1326 650 
Q 1584 409 2034 409 
Q 2484 409 2743 651 
Q 3003 894 3003 1313 
Q 3003 1734 2745 1975 
Q 2488 2216 2034 2216 
z
M 1403 2484 
Q 997 2584 770 2862 
Q 544 3141 544 3541 
Q 544 4100 942 4425 
Q 1341 4750 2034 4750 
Q 2731 4750 3128 4425 
Q 3525 4100 3525 3541 
Q 3525 3141 3298 2862 
Q 3072 2584 2669 2484 
Q 3125 2378 3379 2068 
Q 3634 1759 3634 1313 
Q 3634 634 3220 271 
Q 2806 -91 2034 -91 
Q 1263 -91 848 271 
Q 434 634 434 1313 
Q 434 1759 690 2068 
Q 947 2378 1403 2484 
z
M 1172 3481 
Q 1172 3119 1398 2916 
Q 1625 2713 2034 2713 
Q 2441 2713 2670 2916 
Q 2900 3119 2900 3481 
Q 2900 3844 2670 4047 
Q 2441 4250 2034 4250 
Q 1625 4250 1398 4047 
Q 1172 3844 1172 3481 
z
" transform="scale(0.015625)"/>
       </defs>
       <use xlink:href="#DejaVuSans-38"/>
      </g>
     </g>
    </g>
    <g id="ytick_5">
     <g id="line2d_12">
      <path d="M 474.278404 266.999257 
C 474.278404 237.878001 468.542152 209.039912 457.397929 182.135379 
C 446.253707 155.230846 429.918242 130.783095 409.326404 110.191257 
C 388.734566 89.599419 364.286815 73.263954 337.382282 62.119732 
C 310.477749 50.975509 281.639661 45.239257 252.518404 45.239257 
C 223.397148 45.239257 194.559059 50.975509 167.654526 62.119732 
C 140.749994 73.263954 116.302242 89.599419 95.710404 110.191257 
C 75.118567 130.783095 58.783101 155.230846 47.638879 182.135379 
C 36.494657 209.039912 30.758404 237.878001 30.758404 266.999257 
C 30.758404 296.120513 36.494657 324.958602 47.638879 351.863135 
C 58.783101 378.767668 75.118567 403.215419 95.710404 423.807257 
C 116.302242 444.399095 140.749994 460.73456 167.654526 471.878782 
C 194.559059 483.023004 223.397148 488.759257 252.518404 488.759257 
C 281.639661 488.759257 310.477749 483.023004 337.382282 471.878782 
C 364.286815 460.73456 388.734566 444.399095 409.326404 423.807257 
C 429.918242 403.215419 446.253707 378.767668 457.397929 351.863135 
C 468.542152 324.958602 474.278404 296.120513 474.278404 266.999257 
" clip-path="url(#pfdd3c08c75)" style="fill: none; stroke-dasharray: 1.85,0.8; stroke-dashoffset: 0; stroke: #0485d1; stroke-opacity: 0.2; stroke-width: 0.5"/>
     </g>
     <g id="text_12">
      <!-- 10 -->
      <g transform="translate(457.397929 177.560066) scale(0.22 -0.22)">
       <defs>
        <path id="DejaVuSans-30" d="M 2034 4250 
Q 1547 4250 1301 3770 
Q 1056 3291 1056 2328 
Q 1056 1369 1301 889 
Q 1547 409 2034 409 
Q 2525 409 2770 889 
Q 3016 1369 3016 2328 
Q 3016 3291 2770 3770 
Q 2525 4250 2034 4250 
z
M 2034 4750 
Q 2819 4750 3233 4129 
Q 3647 3509 3647 2328 
Q 3647 1150 3233 529 
Q 2819 -91 2034 -91 
Q 1250 -91 836 529 
Q 422 1150 422 2328 
Q 422 3509 836 4129 
Q 1250 4750 2034 4750 
z
" transform="scale(0.015625)"/>
       </defs>
       <use xlink:href="#DejaVuSans-31"/>
       <use xlink:href="#DejaVuSans-30" transform="translate(63.623047 0)"/>
      </g>
     </g>
    </g>
   </g>
   <g id="line2d_13">
    <path d="M 354.642658 266.999257 
" clip-path="url(#pfdd3c08c75)" style="fill: none; stroke: #5e4fa2; stroke-width: 3; stroke-linecap: square"/>
    <defs>
     <path id="m4c481f22ab" d="M 0 4 
C 1.060812 4 2.078319 3.578535 2.828427 2.828427 
C 3.578535 2.078319 4 1.060812 4 0 
C 4 -1.060812 3.578535 -2.078319 2.828427 -2.828427 
C 2.078319 -3.578535 1.060812 -4 0 -4 
C -1.060812 -4 -2.078319 -3.578535 -2.828427 -2.828427 
C -3.578535 -2.078319 -4 -1.060812 -4 0 
C -4 1.060812 -3.578535 2.078319 -2.828427 2.828427 
C -2.078319 3.578535 -1.060812 4 0 4 
z
" style="stroke: #000000; stroke-width: 0.8"/>
    </defs>
    <g clip-path="url(#pfdd3c08c75)">
     <use xlink:href="#m4c481f22ab" x="354.642658" y="266.999257" style="fill: #5e4fa2; stroke: #000000; stroke-width: 0.8"/>
    </g>
   </g>
   <g id="line2d_14">
    <path d="M 378.775118 108.678345 
" clip-path="url(#pfdd3c08c75)" style="fill: none; stroke: #54aead; stroke-width: 3; stroke-linecap: square"/>
    <defs>
     <path id="me5fb4bd827" d="M 0 4 
C 1.060812 4 2.078319 3.578535 2.828427 2.828427 
C 3.578535 2.078319 4 1.060812 4 0 
C 4 -1.060812 3.578535 -2.078319 2.828427 -2.828427 
C 2.078319 -3.578535 1.060812 -4 0 -4 
C -1.060812 -4 -2.078319 -3.578535 -2.828427 -2.828427 
C -3.578535 -2.078319 -4 -1.060812 -4 0 
C -4 1.060812 -3.578535 2.078319 -2.828427 2.828427 
C -2.078319 3.578535 -1.060812 4 0 4 
z
" style="stroke: #000000; stroke-width: 0.8"/>
    </defs>
    <g clip-path="url(#pfdd3c08c75)">
     <use xlink:href="#me5fb4bd827" x="378.775118" y="108.678345" style="fill: #54aead; stroke: #000000; stroke-width: 0.8"/>
    </g>
   </g>
   <g id="line2d_15">
    <path d="M 229.79362 167.435471 
" clip-path="url(#pfdd3c08c75)" style="fill: none; stroke: #bfe5a0; stroke-width: 3; stroke-linecap: square"/>
    <defs>
     <path id="ma96d83db87" d="M 0 4 
C 1.060812 4 2.078319 3.578535 2.828427 2.828427 
C 3.578535 2.078319 4 1.060812 4 0 
C 4 -1.060812 3.578535 -2.078319 2.828427 -2.828427 
C 2.078319 -3.578535 1.060812 -4 0 -4 
C -1.060812 -4 -2.078319 -3.578535 -2.828427 -2.828427 
C -3.578535 -2.078319 -4 -1.060812 -4 0 
C -4 1.060812 -3.578535 2.078319 -2.828427 2.828427 
C -2.078319 3.578535 -1.060812 4 0 4 
z
" style="stroke: #000000; stroke-width: 0.8"/>
    </defs>
    <g clip-path="url(#pfdd3c08c75)">
     <use xlink:href="#ma96d83db87" x="229.79362" y="167.435471" style="fill: #bfe5a0; stroke: #000000; stroke-width: 0.8"/>
    </g>
   </g>
   <g id="line2d_16">
    <path d="M 160.507631 222.689204 
" clip-path="url(#pfdd3c08c75)" style="fill: none; stroke: #fffebe; stroke-width: 3; stroke-linecap: square"/>
    <defs>
     <path id="m309b32b8cc" d="M 0 4 
C 1.060812 4 2.078319 3.578535 2.828427 2.828427 
C 3.578535 2.078319 4 1.060812 4 0 
C 4 -1.060812 3.578535 -2.078319 2.828427 -2.828427 
C 2.078319 -3.578535 1.060812 -4 0 -4 
C -1.060812 -4 -2.078319 -3.578535 -2.828427 -2.828427 
C -3.578535 -2.078319 -4 -1.060812 -4 0 
C -4 1.060812 -3.578535 2.078319 -2.828427 2.828427 
C -2.078319 3.578535 -1.060812 4 0 4 
z
" style="stroke: #000000; stroke-width: 0.8"/>
    </defs>
    <g clip-path="url(#pfdd3c08c75)">
     <use xlink:href="#m309b32b8cc" x="160.507631" y="222.689204" style="fill: #fffebe; stroke: #000000; stroke-width: 0.8"/>
    </g>
   </g>
   <g id="line2d_17">
    <path d="M 146.433528 318.087041 
" clip-path="url(#pfdd3c08c75)" style="fill: none; stroke: #fdbf6f; stroke-width: 3; stroke-linecap: square"/>
    <defs>
     <path id="m740ae95288" d="M 0 4 
C 1.060812 4 2.078319 3.578535 2.828427 2.828427 
C 3.578535 2.078319 4 1.060812 4 0 
C 4 -1.060812 3.578535 -2.078319 2.828427 -2.828427 
C 2.078319 -3.578535 1.060812 -4 0 -4 
C -1.060812 -4 -2.078319 -3.578535 -2.828427 -2.828427 
C -3.578535 -2.078319 -4 -1.060812 -4 0 
C -4 1.060812 -3.578535 2.078319 -2.828427 2.828427 
C -2.078319 3.578535 -1.060812 4 0 4 
z
" style="stroke: #000000; stroke-width: 0.8"/>
    </defs>
    <g clip-path="url(#pfdd3c08c75)">
     <use xlink:href="#m740ae95288" x="146.433528" y="318.087041" style="fill: #fdbf6f; stroke: #000000; stroke-width: 0.8"/>
    </g>
   </g>
   <g id="line2d_18">
    <path d="M 221.716578 401.950877 
" clip-path="url(#pfdd3c08c75)" style="fill: none; stroke: #e95c47; stroke-width: 3; stroke-linecap: square"/>
    <defs>
     <path id="m7d1e4e864a" d="M 0 4 
C 1.060812 4 2.078319 3.578535 2.828427 2.828427 
C 3.578535 2.078319 4 1.060812 4 0 
C 4 -1.060812 3.578535 -2.078319 2.828427 -2.828427 
C 2.078319 -3.578535 1.060812 -4 0 -4 
C -1.060812 -4 -2.078319 -3.578535 -2.828427 -2.828427 
C -3.578535 -2.078319 -4 -1.060812 -4 0 
C -4 1.060812 -3.578535 2.078319 -2.828427 2.828427 
C -2.078319 3.578535 -1.060812 4 0 4 
z
" style="stroke: #000000; stroke-width: 0.8"/>
    </defs>
    <g clip-path="url(#pfdd3c08c75)">
     <use xlink:href="#m7d1e4e864a" x="221.716578" y="401.950877" style="fill: #e95c47; stroke: #000000; stroke-width: 0.8"/>
    </g>
   </g>
   <g id="line2d_19">
    <path d="M 343.502304 381.089459 
" clip-path="url(#pfdd3c08c75)" style="fill: none; stroke: #9e0142; stroke-width: 3; stroke-linecap: square"/>
    <defs>
     <path id="m3b4ae43ec2" d="M 0 4 
C 1.060812 4 2.078319 3.578535 2.828427 2.828427 
C 3.578535 2.078319 4 1.060812 4 0 
C 4 -1.060812 3.578535 -2.078319 2.828427 -2.828427 
C 2.078319 -3.578535 1.060812 -4 0 -4 
C -1.060812 -4 -2.078319 -3.578535 -2.828427 -2.828427 
C -3.578535 -2.078319 -4 -1.060812 -4 0 
C -4 1.060812 -3.578535 2.078319 -2.828427 2.828427 
C -2.078319 3.578535 -1.060812 4 0 4 
z
" style="stroke: #000000; stroke-width: 0.8"/>
    </defs>
    <g clip-path="url(#pfdd3c08c75)">
     <use xlink:href="#m3b4ae43ec2" x="343.502304" y="381.089459" style="fill: #9e0142; stroke: #000000; stroke-width: 0.8"/>
    </g>
   </g>
   <g id="patch_4">
    <path d="M 474.278404 266.999257 
C 474.278404 237.878001 468.542152 209.039912 457.397929 182.135379 
C 446.253707 155.230846 429.918242 130.783095 409.326404 110.191257 
C 388.734566 89.599419 364.286815 73.263954 337.382282 62.119732 
C 310.477749 50.975509 281.639661 45.239257 252.518404 45.239257 
C 223.397148 45.239257 194.559059 50.975509 167.654526 62.119732 
C 140.749994 73.263954 116.302242 89.599419 95.710404 110.191257 
C 75.118567 130.783095 58.783101 155.230846 47.638879 182.135379 
C 36.494657 209.039912 30.758404 237.878001 30.758404 266.999257 
C 30.758404 296.120513 36.494657 324.958602 47.638879 351.863135 
C 58.783101 378.767668 75.118567 403.215419 95.710404 423.807257 
C 116.302242 444.399095 140.749994 460.73456 167.654526 471.878782 
C 194.559059 483.023004 223.397148 488.759257 252.518404 488.759257 
C 281.639661 488.759257 310.477749 483.023004 337.382282 471.878782 
C 364.286815 460.73456 388.734566 444.399095 409.326404 423.807257 
C 429.918242 403.215419 446.253707 378.767668 457.397929 351.863135 
C 468.542152 324.958602 474.278404 296.120513 474.278404 266.999257 
" style="fill: none; stroke: #bcbcbc; stroke-width: 0.8; stroke-linejoin: miter; stroke-linecap: square"/>
   </g>
   <g id="text_13">
    <!-- : 33 layers -->
    <g transform="translate(194.495123 23.916563) scale(0.22 -0.22)">
     <defs>
      <path id="DejaVuSans-3a" d="M 750 794 
L 1409 794 
L 1409 0 
L 750 0 
L 750 794 
z
M 750 3309 
L 1409 3309 
L 1409 2516 
L 750 2516 
L 750 3309 
z
" transform="scale(0.015625)"/>
      <path id="DejaVuSans-20" transform="scale(0.015625)"/>
      <path id="DejaVuSans-6c" d="M 603 4863 
L 1178 4863 
L 1178 0 
L 603 0 
L 603 4863 
z
" transform="scale(0.015625)"/>
      <path id="DejaVuSans-79" d="M 2059 -325 
Q 1816 -950 1584 -1140 
Q 1353 -1331 966 -1331 
L 506 -1331 
L 506 -850 
L 844 -850 
Q 1081 -850 1212 -737 
Q 1344 -625 1503 -206 
L 1606 56 
L 191 3500 
L 800 3500 
L 1894 763 
L 2988 3500 
L 3597 3500 
L 2059 -325 
z
" transform="scale(0.015625)"/>
      <path id="DejaVuSans-65" d="M 3597 1894 
L 3597 1613 
L 953 1613 
Q 991 1019 1311 708 
Q 1631 397 2203 397 
Q 2534 397 2845 478 
Q 3156 559 3463 722 
L 3463 178 
Q 3153 47 2828 -22 
Q 2503 -91 2169 -91 
Q 1331 -91 842 396 
Q 353 884 353 1716 
Q 353 2575 817 3079 
Q 1281 3584 2069 3584 
Q 2775 3584 3186 3129 
Q 3597 2675 3597 1894 
z
M 3022 2063 
Q 3016 2534 2758 2815 
Q 2500 3097 2075 3097 
Q 1594 3097 1305 2825 
Q 1016 2553 972 2059 
L 3022 2063 
z
" transform="scale(0.015625)"/>
     </defs>
     <use xlink:href="#DejaVuSans-3a"/>
     <use xlink:href="#DejaVuSans-20" transform="translate(33.691406 0)"/>
     <use xlink:href="#DejaVuSans-33" transform="translate(65.478516 0)"/>
     <use xlink:href="#DejaVuSans-33" transform="translate(129.101562 0)"/>
     <use xlink:href="#DejaVuSans-20" transform="translate(192.724609 0)"/>
     <use xlink:href="#DejaVuSans-6c" transform="translate(224.511719 0)"/>
     <use xlink:href="#DejaVuSans-61" transform="translate(252.294922 0)"/>
     <use xlink:href="#DejaVuSans-79" transform="translate(313.574219 0)"/>
     <use xlink:href="#DejaVuSans-65" transform="translate(372.753906 0)"/>
     <use xlink:href="#DejaVuSans-72" transform="translate(434.277344 0)"/>
     <use xlink:href="#DejaVuSans-73" transform="translate(475.390625 0)"/>
    </g>
   </g>
  </g>
 </g>
 <defs>
  <clipPath id="pfdd3c08c75">
   <path d="M 474.278404 266.999257 
C 474.278404 237.878001 468.542152 209.039912 457.397929 182.135379 
C 446.253707 155.230846 429.918242 130.783095 409.326404 110.191257 
C 388.734566 89.599419 364.286815 73.263954 337.382282 62.119732 
C 310.477749 50.975509 281.639661 45.239257 252.518404 45.239257 
C 223.397148 45.239257 194.559059 50.975509 167.654526 62.119732 
C 140.749994 73.263954 116.302242 89.599419 95.710404 110.191257 
C 75.118567 130.783095 58.783101 155.230846 47.638879 182.135379 
C 36.494657 209.039912 30.758404 237.878001 30.758404 266.999257 
C 30.758404 296.120513 36.494657 324.958602 47.638879 351.863135 
C 58.783101 378.767668 75.118567 403.215419 95.710404 423.807257 
C 116.302242 444.399095 140.749994 460.73456 167.654526 471.878782 
C 194.559059 483.023004 223.397148 488.759257 252.518404 488.759257 
C 281.639661 488.759257 310.477749 483.023004 337.382282 471.878782 
C 364.286815 460.73456 388.734566 444.399095 409.326404 423.807257 
C 429.918242 403.215419 446.253707 378.767668 457.397929 351.863135 
C 468.542152 324.958602 474.278404 296.120513 474.278404 266.999257 
M 252.518404 266.999257 
C 252.518404 266.999257 252.518404 266.999257 252.518404 266.999257 
C 252.518404 266.999257 252.518404 266.999257 252.518404 266.999257 
C 252.518404 266.999257 252.518404 266.999257 252.518404 266.999257 
C 252.518404 266.999257 252.518404 266.999257 252.518404 266.999257 
C 252.518404 266.999257 252.518404 266.999257 252.518404 266.999257 
C 252.518404 266.999257 252.518404 266.999257 252.518404 266.999257 
C 252.518404 266.999257 252.518404 266.999257 252.518404 266.999257 
C 252.518404 266.999257 252.518404 266.999257 252.518404 266.999257 
C 252.518404 266.999257 252.518404 266.999257 252.518404 266.999257 
C 252.518404 266.999257 252.518404 266.999257 252.518404 266.999257 
C 252.518404 266.999257 252.518404 266.999257 252.518404 266.999257 
C 252.518404 266.999257 252.518404 266.999257 252.518404 266.999257 
C 252.518404 266.999257 252.518404 266.999257 252.518404 266.999257 
C 252.518404 266.999257 252.518404 266.999257 252.518404 266.999257 
C 252.518404 266.999257 252.518404 266.999257 252.518404 266.999257 
C 252.518404 266.999257 252.518404 266.999257 252.518404 266.999257 
z
"/>
  </clipPath>
 </defs>
</svg>
