<?xml version="1.0" encoding="UTF-8" standalone="no"?>
<!DOCTYPE svg PUBLIC "-//W3C//DTD SVG 1.1//EN"
 "http://www.w3.org/Graphics/SVG/1.1/DTD/svg11.dtd">
<!-- Generated by graphviz version 14.1.0 (20251206.1807)
 -->
<!-- Title: OptimalBragg Pages: 1 -->
<svg width="699pt" height="705pt"
 viewBox="0.00 0.00 699.00 705.00" xmlns="http://www.w3.org/2000/svg" xmlns:xlink="http://www.w3.org/1999/xlink">
<g id="graph0" class="graph" transform="scale(1 1) rotate(0) translate(4 700.75)">
<title>OptimalBragg</title>
<polygon fill="white" stroke="none" points="-4,4 -4,-700.75 695,-700.75 695,4 -4,4"/>
<g id="clust1" class="cluster">
<title>cluster_package</title>
<path fill="none" stroke="#4477aa" stroke-dasharray="5,2" d="M20,-8C20,-8 292,-8 292,-8 298,-8 304,-14 304,-20 304,-20 304,-676.75 304,-676.75 304,-682.75 298,-688.75 292,-688.75 292,-688.75 20,-688.75 20,-688.75 14,-688.75 8,-682.75 8,-676.75 8,-676.75 8,-20 8,-20 8,-14 14,-8 20,-8"/>
<text xml:space="preserve" text-anchor="middle" x="156" y="-672.4" font-family="Helvetica,sans-Serif" font-size="13.00" fill="#4477aa">OptimalBragg/</text>
</g>
<g id="clust2" class="cluster">
<title>cluster_projects</title>
<path fill="none" stroke="#228b22" stroke-dasharray="5,2" d="M324,-197.25C324,-197.25 639,-197.25 639,-197.25 645,-197.25 651,-203.25 651,-209.25 651,-209.25 651,-266.75 651,-266.75 651,-272.75 645,-278.75 639,-278.75 639,-278.75 324,-278.75 324,-278.75 318,-278.75 312,-272.75 312,-266.75 312,-266.75 312,-209.25 312,-209.25 312,-203.25 318,-197.25 324,-197.25"/>
<text xml:space="preserve" text-anchor="middle" x="481.5" y="-262.4" font-family="Helvetica,sans-Serif" font-size="13.00" fill="#228b22">projects/</text>
</g>
<g id="clust3" class="cluster">
<title>cluster_outputs</title>
<path fill="none" stroke="#e67e22" stroke-dasharray="5,2" d="M336,-408.25C336,-408.25 671,-408.25 671,-408.25 677,-408.25 683,-414.25 683,-420.25 683,-420.25 683,-477.75 683,-477.75 683,-483.75 677,-489.75 671,-489.75 671,-489.75 336,-489.75 336,-489.75 330,-489.75 324,-483.75 324,-477.75 324,-477.75 324,-420.25 324,-420.25 324,-414.25 330,-408.25 336,-408.25"/>
<text xml:space="preserve" text-anchor="middle" x="503.5" y="-473.4" font-family="Helvetica,sans-Serif" font-size="13.00" fill="#e67e22">Outputs</text>
</g>
<!-- init -->
<g id="node1" class="node">
<title>init</title>
<path fill="#d4e6f1" stroke="black" d="M136.38,-565.5C136.38,-565.5 47.62,-565.5 47.62,-565.5 41.62,-565.5 35.62,-559.5 35.62,-553.5 35.62,-553.5 35.62,-541.5 35.62,-541.5 35.62,-535.5 41.62,-529.5 47.62,-529.5 47.62,-529.5 136.38,-529.5 136.38,-529.5 142.38,-529.5 148.38,-535.5 148.38,-541.5 148.38,-541.5 148.38,-553.5 148.38,-553.5 148.38,-559.5 142.38,-565.5 136.38,-565.5"/>
<text xml:space="preserve" text-anchor="middle" x="92" y="-549.05" font-family="Helvetica,sans-Serif" font-size="11.00">__init__.py</text>
<text xml:space="preserve" text-anchor="middle" x="92" y="-537.05" font-family="Helvetica,sans-Serif" font-size="11.00">Material, qw_stack()</text>
</g>
<!-- layers -->
<g id="node4" class="node">
<title>layers</title>
<path fill="#d4e6f1" stroke="black" stroke-width="2" d="M148.38,-460.25C148.38,-460.25 47.62,-460.25 47.62,-460.25 41.63,-460.25 35.63,-454.25 35.63,-448.25 35.63,-448.25 35.63,-428.25 35.63,-428.25 35.63,-422.25 41.63,-416.25 47.63,-416.25 47.63,-416.25 148.38,-416.25 148.38,-416.25 154.38,-416.25 160.38,-422.25 160.38,-428.25 160.38,-428.25 160.38,-448.25 160.38,-448.25 160.38,-454.25 154.38,-460.25 148.38,-460.25"/>
<text xml:space="preserve" text-anchor="middle" x="98" y="-445.8" font-family="Helvetica,sans-Serif" font-size="11.00">layers.py</text>
<text xml:space="preserve" text-anchor="middle" x="98" y="-433.8" font-family="Helvetica,sans-Serif" font-size="11.00">multidiel1 (Numba JIT)</text>
<text xml:space="preserve" text-anchor="middle" x="98" y="-421.8" font-family="Helvetica,sans-Serif" font-size="11.00">field_zmag, surfield</text>
</g>
<!-- init&#45;&gt;layers -->
<g id="edge3" class="edge">
<title>init&#45;&gt;layers</title>
<path fill="none" stroke="black" d="M92.96,-529.27C93.83,-513.85 95.11,-490.82 96.17,-471.92"/>
<polygon fill="black" stroke="black" points="99.66,-472.19 96.73,-462.01 92.67,-471.8 99.66,-472.19"/>
<text xml:space="preserve" text-anchor="middle" x="113.39" y="-498.95" font-family="Helvetica,sans-Serif" font-size="9.00">stack dict</text>
</g>
<!-- materials -->
<g id="node2" class="node">
<title>materials</title>
<path fill="#d4e6f1" stroke="black" d="M154.38,-659.25C154.38,-659.25 29.63,-659.25 29.63,-659.25 23.62,-659.25 17.62,-653.25 17.62,-647.25 17.62,-647.25 17.62,-627.25 17.62,-627.25 17.62,-621.25 23.62,-615.25 29.62,-615.25 29.62,-615.25 154.38,-615.25 154.38,-615.25 160.38,-615.25 166.38,-621.25 166.38,-627.25 166.38,-627.25 166.38,-647.25 166.38,-647.25 166.38,-653.25 160.38,-659.25 154.38,-659.25"/>
<text xml:space="preserve" text-anchor="middle" x="92" y="-644.8" font-family="Helvetica,sans-Serif" font-size="11.00">materials.py</text>
<text xml:space="preserve" text-anchor="middle" x="92" y="-632.8" font-family="Helvetica,sans-Serif" font-size="11.00">SiO2, TiTa2O5, Ta2O5</text>
<text xml:space="preserve" text-anchor="middle" x="92" y="-620.8" font-family="Helvetica,sans-Serif" font-size="11.00">aSi_123, SiN_123, cSi_123</text>
</g>
<!-- materials&#45;&gt;init -->
<g id="edge1" class="edge">
<title>materials&#45;&gt;init</title>
<path fill="none" stroke="black" d="M92,-615.01C92,-603.55 92,-589.26 92,-576.87"/>
<polygon fill="black" stroke="black" points="95.5,-577.24 92,-567.24 88.5,-577.24 95.5,-577.24"/>
<text xml:space="preserve" text-anchor="middle" x="104.75" y="-588.7" font-family="Helvetica,sans-Serif" font-size="9.00">library</text>
</g>
<!-- io -->
<g id="node3" class="node">
<title>io</title>
<path fill="#d4e6f1" stroke="black" d="M284.12,-60C284.12,-60 193.88,-60 193.88,-60 187.88,-60 181.88,-54 181.88,-48 181.88,-48 181.88,-28 181.88,-28 181.88,-22 187.88,-16 193.88,-16 193.88,-16 284.12,-16 284.12,-16 290.12,-16 296.12,-22 296.12,-28 296.12,-28 296.12,-48 296.12,-48 296.12,-54 290.12,-60 284.12,-60"/>
<text xml:space="preserve" text-anchor="middle" x="239" y="-45.55" font-family="Helvetica,sans-Serif" font-size="11.00">io.py</text>
<text xml:space="preserve" text-anchor="middle" x="239" y="-33.55" font-family="Helvetica,sans-Serif" font-size="11.00">h5read, h5write</text>
<text xml:space="preserve" text-anchor="middle" x="239" y="-21.55" font-family="Helvetica,sans-Serif" font-size="11.00">load_materials_yaml</text>
</g>
<!-- io&#45;&gt;init -->
<g id="edge2" class="edge">
<title>io&#45;&gt;init</title>
<path fill="none" stroke="black" d="M215.45,-60.44C202.25,-73.02 185.91,-89.57 173,-105.75 104.38,-191.74 77.98,-211.26 40,-314.5 13.03,-387.8 -5.31,-418.64 27,-489.75 32.76,-502.43 42.91,-513.38 53.5,-522.19"/>
<polygon fill="black" stroke="black" points="51.16,-524.81 61.22,-528.16 55.44,-519.27 51.16,-524.81"/>
<text xml:space="preserve" text-anchor="middle" x="65.58" y="-287.95" font-family="Helvetica,sans-Serif" font-size="9.00">exports</text>
</g>
<!-- hdf5 -->
<g id="node14" class="node">
<title>hdf5</title>
<path fill="#fdebd0" stroke="black" d="M662.62,-460.25C662.62,-460.25 593.38,-460.25 593.38,-460.25 587.38,-460.25 581.38,-454.25 581.38,-448.25 581.38,-448.25 581.38,-428.25 581.38,-428.25 581.38,-422.25 587.38,-416.25 593.38,-416.25 593.38,-416.25 662.62,-416.25 662.62,-416.25 668.62,-416.25 674.62,-422.25 674.62,-428.25 674.62,-428.25 674.62,-448.25 674.62,-448.25 674.62,-454.25 668.62,-460.25 662.62,-460.25"/>
<text xml:space="preserve" text-anchor="middle" x="628" y="-445.8" font-family="Helvetica,sans-Serif" font-size="11.00">Data/*.hdf5</text>
<text xml:space="preserve" text-anchor="middle" x="628" y="-433.8" font-family="Helvetica,sans-Serif" font-size="11.00">optimized layers</text>
<text xml:space="preserve" text-anchor="middle" x="628" y="-421.8" font-family="Helvetica,sans-Serif" font-size="11.00">MC chains</text>
</g>
<!-- io&#45;&gt;hdf5 -->
<g id="edge9" class="edge">
<title>io&#45;&gt;hdf5</title>
<path fill="none" stroke="black" d="M296.37,-38.81C413.88,-39.98 671,-51.18 671,-126.75 671,-343.5 671,-343.5 671,-343.5 671,-365.8 660.82,-388.6 650.37,-406.12"/>
<polygon fill="black" stroke="black" points="647.45,-404.19 645.07,-414.51 653.37,-407.93 647.45,-404.19"/>
</g>
<!-- costs -->
<g id="node5" class="node">
<title>costs</title>
<path fill="#d4e6f1" stroke="black" d="M212,-249.25C212,-249.25 154,-249.25 154,-249.25 148,-249.25 142,-243.25 142,-237.25 142,-237.25 142,-217.25 142,-217.25 142,-211.25 148,-205.25 154,-205.25 154,-205.25 212,-205.25 212,-205.25 218,-205.25 224,-211.25 224,-217.25 224,-217.25 224,-237.25 224,-237.25 224,-243.25 218,-249.25 212,-249.25"/>
<text xml:space="preserve" text-anchor="middle" x="183" y="-234.8" font-family="Helvetica,sans-Serif" font-size="11.00">costs.py</text>
<text xml:space="preserve" text-anchor="middle" x="183" y="-222.8" font-family="Helvetica,sans-Serif" font-size="11.00">getMirrorCost</text>
<text xml:space="preserve" text-anchor="middle" x="183" y="-210.8" font-family="Helvetica,sans-Serif" font-size="11.00">prod(1 + w*c)</text>
</g>
<!-- layers&#45;&gt;costs -->
<g id="edge4" class="edge">
<title>layers&#45;&gt;costs</title>
<path fill="none" stroke="black" d="M120.76,-415.92C132.72,-403.63 146.76,-387.32 156,-370.5 174.91,-336.07 180.79,-290.67 182.51,-260.53"/>
<polygon fill="black" stroke="black" points="185.99,-261.04 182.93,-250.9 179,-260.74 185.99,-261.04"/>
<text xml:space="preserve" text-anchor="middle" x="199.12" y="-338.82" font-family="Helvetica,sans-Serif" font-size="9.00">R, T, E&#45;field</text>
</g>
<!-- noise -->
<g id="node6" class="node">
<title>noise</title>
<path fill="#d4e6f1" stroke="black" stroke-width="2" d="M135.25,-370.5C135.25,-370.5 60.75,-370.5 60.75,-370.5 54.75,-370.5 48.75,-364.5 48.75,-358.5 48.75,-358.5 48.75,-326.5 48.75,-326.5 48.75,-320.5 54.75,-314.5 60.75,-314.5 60.75,-314.5 135.25,-314.5 135.25,-314.5 141.25,-314.5 147.25,-320.5 147.25,-326.5 147.25,-326.5 147.25,-358.5 147.25,-358.5 147.25,-364.5 141.25,-370.5 135.25,-370.5"/>
<text xml:space="preserve" text-anchor="middle" x="98" y="-356.05" font-family="Helvetica,sans-Serif" font-size="11.00">noise.py</text>
<text xml:space="preserve" text-anchor="middle" x="98" y="-344.05" font-family="Helvetica,sans-Serif" font-size="11.00">thermooptic (JIT)</text>
<text xml:space="preserve" text-anchor="middle" x="98" y="-332.05" font-family="Helvetica,sans-Serif" font-size="11.00">Brownian (Hong)</text>
<text xml:space="preserve" text-anchor="middle" x="98" y="-320.05" font-family="Helvetica,sans-Serif" font-size="11.00">substrate noise</text>
</g>
<!-- layers&#45;&gt;noise -->
<g id="edge5" class="edge">
<title>layers&#45;&gt;noise</title>
<path fill="none" stroke="black" d="M98,-415.98C98,-405.93 98,-393.62 98,-382.01"/>
<polygon fill="black" stroke="black" points="101.5,-382.26 98,-372.26 94.5,-382.26 101.5,-382.26"/>
<text xml:space="preserve" text-anchor="middle" x="108.12" y="-389.7" font-family="Helvetica,sans-Serif" font-size="9.00">TMM</text>
</g>
<!-- optimizer -->
<g id="node7" class="node">
<title>optimizer</title>
<path fill="#d4e6f1" stroke="black" d="M284.12,-149.75C284.12,-149.75 193.88,-149.75 193.88,-149.75 187.88,-149.75 181.88,-143.75 181.88,-137.75 181.88,-137.75 181.88,-117.75 181.88,-117.75 181.88,-111.75 187.88,-105.75 193.88,-105.75 193.88,-105.75 284.12,-105.75 284.12,-105.75 290.12,-105.75 296.12,-111.75 296.12,-117.75 296.12,-117.75 296.12,-137.75 296.12,-137.75 296.12,-143.75 290.12,-149.75 284.12,-149.75"/>
<text xml:space="preserve" text-anchor="middle" x="239" y="-135.3" font-family="Helvetica,sans-Serif" font-size="11.00">optimizer.py</text>
<text xml:space="preserve" text-anchor="middle" x="239" y="-123.3" font-family="Helvetica,sans-Serif" font-size="11.00">run_optimization</text>
<text xml:space="preserve" text-anchor="middle" x="239" y="-111.3" font-family="Helvetica,sans-Serif" font-size="11.00">differential_evolution</text>
</g>
<!-- costs&#45;&gt;optimizer -->
<g id="edge7" class="edge">
<title>costs&#45;&gt;optimizer</title>
<path fill="none" stroke="black" d="M195.15,-205.09C202.73,-191.9 212.62,-174.68 221.09,-159.93"/>
<polygon fill="black" stroke="black" points="223.98,-161.93 225.93,-151.51 217.91,-158.44 223.98,-161.93"/>
<text xml:space="preserve" text-anchor="middle" x="229.89" y="-173.82" font-family="Helvetica,sans-Serif" font-size="9.00">cost(L)</text>
</g>
<!-- noise&#45;&gt;costs -->
<g id="edge6" class="edge">
<title>noise&#45;&gt;costs</title>
<path fill="none" stroke="black" d="M107.78,-314.23C111.68,-305.09 116.64,-295.11 122.5,-286.75 129.82,-276.31 139.18,-266.19 148.34,-257.38"/>
<polygon fill="black" stroke="black" points="150.57,-260.09 155.52,-250.72 145.81,-254.95 150.57,-260.09"/>
<text xml:space="preserve" text-anchor="middle" x="150.25" y="-287.95" font-family="Helvetica,sans-Serif" font-size="9.00">thermal noise</text>
</g>
<!-- optimizer&#45;&gt;io -->
<g id="edge8" class="edge">
<title>optimizer&#45;&gt;io</title>
<path fill="none" stroke="black" d="M239,-105.51C239,-95.34 239,-82.95 239,-71.62"/>
<polygon fill="black" stroke="black" points="242.5,-71.86 239,-61.86 235.5,-71.86 242.5,-71.86"/>
<text xml:space="preserve" text-anchor="middle" x="261.88" y="-79.2" font-family="Helvetica,sans-Serif" font-size="9.00">save HDF5</text>
</g>
<!-- plot -->
<g id="node8" class="node">
<title>plot</title>
<path fill="#d4e6f1" stroke="black" d="M284,-569.5C284,-569.5 190,-569.5 190,-569.5 184,-569.5 178,-563.5 178,-557.5 178,-557.5 178,-537.5 178,-537.5 178,-531.5 184,-525.5 190,-525.5 190,-525.5 284,-525.5 284,-525.5 290,-525.5 296,-531.5 296,-537.5 296,-537.5 296,-557.5 296,-557.5 296,-563.5 290,-569.5 284,-569.5"/>
<text xml:space="preserve" text-anchor="middle" x="237" y="-555.05" font-family="Helvetica,sans-Serif" font-size="11.00">plot.py</text>
<text xml:space="preserve" text-anchor="middle" x="237" y="-543.05" font-family="Helvetica,sans-Serif" font-size="11.00">layers, spectral</text>
<text xml:space="preserve" text-anchor="middle" x="237" y="-531.05" font-family="Helvetica,sans-Serif" font-size="11.00">noise, corner, starfish</text>
</g>
<!-- report -->
<g id="node10" class="node">
<title>report</title>
<path fill="#d4e6f1" stroke="black" d="M283.62,-456.25C283.62,-456.25 190.38,-456.25 190.38,-456.25 184.38,-456.25 178.38,-450.25 178.38,-444.25 178.38,-444.25 178.38,-432.25 178.38,-432.25 178.38,-426.25 184.38,-420.25 190.38,-420.25 190.38,-420.25 283.62,-420.25 283.62,-420.25 289.62,-420.25 295.62,-426.25 295.62,-432.25 295.62,-432.25 295.62,-444.25 295.62,-444.25 295.62,-450.25 289.62,-456.25 283.62,-456.25"/>
<text xml:space="preserve" text-anchor="middle" x="237" y="-439.8" font-family="Helvetica,sans-Serif" font-size="11.00">report.py</text>
<text xml:space="preserve" text-anchor="middle" x="237" y="-427.8" font-family="Helvetica,sans-Serif" font-size="11.00">Sphinx RST + HTML</text>
</g>
<!-- plot&#45;&gt;report -->
<g id="edge18" class="edge">
<title>plot&#45;&gt;report</title>
<path fill="none" stroke="black" d="M237,-525.05C237,-508.58 237,-485.69 237,-467.69"/>
<polygon fill="black" stroke="black" points="240.5,-467.93 237,-457.93 233.5,-467.93 240.5,-467.93"/>
<text xml:space="preserve" text-anchor="middle" x="250.88" y="-498.95" font-family="Helvetica,sans-Serif" font-size="9.00">figures</text>
</g>
<!-- figures -->
<g id="node15" class="node">
<title>figures</title>
<path fill="#fdebd0" stroke="black" d="M551.38,-460.25C551.38,-460.25 480.62,-460.25 480.62,-460.25 474.62,-460.25 468.62,-454.25 468.62,-448.25 468.62,-448.25 468.62,-428.25 468.62,-428.25 468.62,-422.25 474.62,-416.25 480.62,-416.25 480.62,-416.25 551.38,-416.25 551.38,-416.25 557.38,-416.25 563.38,-422.25 563.38,-428.25 563.38,-428.25 563.38,-448.25 563.38,-448.25 563.38,-454.25 557.38,-460.25 551.38,-460.25"/>
<text xml:space="preserve" text-anchor="middle" x="516" y="-445.8" font-family="Helvetica,sans-Serif" font-size="11.00">Figures/*.pdf</text>
<text xml:space="preserve" text-anchor="middle" x="516" y="-433.8" font-family="Helvetica,sans-Serif" font-size="11.00">layer structure</text>
<text xml:space="preserve" text-anchor="middle" x="516" y="-421.8" font-family="Helvetica,sans-Serif" font-size="11.00">reflectivity, noise</text>
</g>
<!-- plot&#45;&gt;figures -->
<g id="edge16" class="edge">
<title>plot&#45;&gt;figures</title>
<path fill="none" stroke="black" d="M284.12,-525.11C308.14,-515.14 338.1,-504.09 366,-497.75 406.45,-488.55 420.88,-506.11 459,-489.75 470.42,-484.85 481.13,-476.74 490.12,-468.44"/>
<polygon fill="black" stroke="black" points="492.42,-471.09 497.1,-461.59 487.51,-466.1 492.42,-471.09"/>
</g>
<!-- mc -->
<g id="node9" class="node">
<title>mc</title>
<path fill="#d4e6f1" stroke="black" d="M283.5,-659.25C283.5,-659.25 204.5,-659.25 204.5,-659.25 198.5,-659.25 192.5,-653.25 192.5,-647.25 192.5,-647.25 192.5,-627.25 192.5,-627.25 192.5,-621.25 198.5,-615.25 204.5,-615.25 204.5,-615.25 283.5,-615.25 283.5,-615.25 289.5,-615.25 295.5,-621.25 295.5,-627.25 295.5,-627.25 295.5,-647.25 295.5,-647.25 295.5,-653.25 289.5,-659.25 283.5,-659.25"/>
<text xml:space="preserve" text-anchor="middle" x="244" y="-644.8" font-family="Helvetica,sans-Serif" font-size="11.00">mc.py</text>
<text xml:space="preserve" text-anchor="middle" x="244" y="-632.8" font-family="Helvetica,sans-Serif" font-size="11.00">emcee MCMC</text>
<text xml:space="preserve" text-anchor="middle" x="244" y="-620.8" font-family="Helvetica,sans-Serif" font-size="11.00">sensitivity analysis</text>
</g>
<!-- mc&#45;&gt;plot -->
<g id="edge17" class="edge">
<title>mc&#45;&gt;plot</title>
<path fill="none" stroke="black" d="M242.31,-615.01C241.49,-604.84 240.51,-592.45 239.6,-581.12"/>
<polygon fill="black" stroke="black" points="243.11,-581.05 238.82,-571.36 236.13,-581.61 243.11,-581.05"/>
<text xml:space="preserve" text-anchor="middle" x="263.96" y="-588.7" font-family="Helvetica,sans-Serif" font-size="9.00">corner data</text>
</g>
<!-- mc&#45;&gt;hdf5 -->
<g id="edge15" class="edge">
<title>mc&#45;&gt;hdf5</title>
<path fill="none" stroke="black" d="M278.37,-614.96C318.51,-590.79 387.46,-551.36 450.5,-525.5 502.58,-504.14 522.87,-517.23 572,-489.75 582.2,-484.05 592.09,-476.18 600.65,-468.36"/>
<polygon fill="black" stroke="black" points="602.83,-471.11 607.64,-461.67 597.99,-466.06 602.83,-471.11"/>
<text xml:space="preserve" text-anchor="middle" x="472.25" y="-543.83" font-family="Helvetica,sans-Serif" font-size="9.00">MC chains</text>
</g>
<!-- docs -->
<g id="node16" class="node">
<title>docs</title>
<path fill="#fdebd0" stroke="black" d="M438.38,-456.25C438.38,-456.25 343.62,-456.25 343.62,-456.25 337.62,-456.25 331.62,-450.25 331.62,-444.25 331.62,-444.25 331.62,-432.25 331.62,-432.25 331.62,-426.25 337.62,-420.25 343.62,-420.25 343.62,-420.25 438.38,-420.25 438.38,-420.25 444.38,-420.25 450.38,-426.25 450.38,-432.25 450.38,-432.25 450.38,-444.25 450.38,-444.25 450.38,-450.25 444.38,-456.25 438.38,-456.25"/>
<text xml:space="preserve" text-anchor="middle" x="391" y="-439.8" font-family="Helvetica,sans-Serif" font-size="11.00">docs/runs/</text>
<text xml:space="preserve" text-anchor="middle" x="391" y="-427.8" font-family="Helvetica,sans-Serif" font-size="11.00">Sphinx HTML reports</text>
</g>
<!-- report&#45;&gt;docs -->
<g id="edge19" class="edge">
<title>report&#45;&gt;docs</title>
<path fill="none" stroke="black" d="M295.95,-438.25C303.94,-438.25 311.94,-438.25 319.93,-438.25"/>
<polygon fill="black" stroke="black" points="319.71,-441.75 329.71,-438.25 319.71,-434.75 319.71,-441.75"/>
</g>
<!-- aligo -->
<g id="node11" class="node">
<title>aligo</title>
<path fill="#d5f5e3" stroke="black" d="M400.25,-249.25C400.25,-249.25 331.75,-249.25 331.75,-249.25 325.75,-249.25 319.75,-243.25 319.75,-237.25 319.75,-237.25 319.75,-217.25 319.75,-217.25 319.75,-211.25 325.75,-205.25 331.75,-205.25 331.75,-205.25 400.25,-205.25 400.25,-205.25 406.25,-205.25 412.25,-211.25 412.25,-217.25 412.25,-217.25 412.25,-237.25 412.25,-237.25 412.25,-243.25 406.25,-249.25 400.25,-249.25"/>
<text xml:space="preserve" text-anchor="middle" x="366" y="-234.8" font-family="Helvetica,sans-Serif" font-size="11.00">aLIGO/</text>
<text xml:space="preserve" text-anchor="middle" x="366" y="-222.8" font-family="Helvetica,sans-Serif" font-size="11.00">1064 nm, 295 K</text>
<text xml:space="preserve" text-anchor="middle" x="366" y="-210.8" font-family="Helvetica,sans-Serif" font-size="11.00">SiO2 / TiTa2O5</text>
</g>
<!-- aligo&#45;&gt;optimizer -->
<g id="edge10" class="edge">
<title>aligo&#45;&gt;optimizer</title>
<path fill="none" stroke="#228b22" stroke-dasharray="5,2" d="M338.13,-204.85C319.85,-190.82 295.75,-172.31 275.88,-157.07"/>
<polygon fill="#228b22" stroke="#228b22" points="278.07,-154.33 268.01,-151.02 273.81,-159.88 278.07,-154.33"/>
<text xml:space="preserve" text-anchor="middle" x="340.88" y="-178.7" font-family="Helvetica,sans-Serif" font-size="9.00">params.yml</text>
<text xml:space="preserve" text-anchor="middle" x="340.88" y="-168.95" font-family="Helvetica,sans-Serif" font-size="9.00">materials.yml</text>
</g>
<!-- voyager_asissn -->
<g id="node12" class="node">
<title>voyager_asissn</title>
<path fill="#d5f5e3" stroke="black" d="M517.25,-249.25C517.25,-249.25 442.75,-249.25 442.75,-249.25 436.75,-249.25 430.75,-243.25 430.75,-237.25 430.75,-237.25 430.75,-217.25 430.75,-217.25 430.75,-211.25 436.75,-205.25 442.75,-205.25 442.75,-205.25 517.25,-205.25 517.25,-205.25 523.25,-205.25 529.25,-211.25 529.25,-217.25 529.25,-217.25 529.25,-237.25 529.25,-237.25 529.25,-243.25 523.25,-249.25 517.25,-249.25"/>
<text xml:space="preserve" text-anchor="middle" x="480" y="-234.8" font-family="Helvetica,sans-Serif" font-size="11.00">Voyager_aSiSiN/</text>
<text xml:space="preserve" text-anchor="middle" x="480" y="-222.8" font-family="Helvetica,sans-Serif" font-size="11.00">2050 nm, 123 K</text>
<text xml:space="preserve" text-anchor="middle" x="480" y="-210.8" font-family="Helvetica,sans-Serif" font-size="11.00">aSi / SiN</text>
</g>
<!-- voyager_asissn&#45;&gt;optimizer -->
<g id="edge11" class="edge">
<title>voyager_asissn&#45;&gt;optimizer</title>
<path fill="none" stroke="#228b22" stroke-dasharray="5,2" d="M444.93,-204.8C424.24,-192.77 397.24,-178.15 372,-167.75 351.44,-159.28 328.4,-151.84 307.34,-145.8"/>
<polygon fill="#228b22" stroke="#228b22" points="308.57,-142.51 298,-143.18 306.68,-149.25 308.57,-142.51"/>
</g>
<!-- voyager_ta2o5 -->
<g id="node13" class="node">
<title>voyager_ta2o5</title>
<path fill="#d5f5e3" stroke="black" d="M631.12,-249.25C631.12,-249.25 558.88,-249.25 558.88,-249.25 552.88,-249.25 546.88,-243.25 546.88,-237.25 546.88,-237.25 546.88,-217.25 546.88,-217.25 546.88,-211.25 552.88,-205.25 558.88,-205.25 558.88,-205.25 631.12,-205.25 631.12,-205.25 637.12,-205.25 643.12,-211.25 643.12,-217.25 643.12,-217.25 643.12,-237.25 643.12,-237.25 643.12,-243.25 637.12,-249.25 631.12,-249.25"/>
<text xml:space="preserve" text-anchor="middle" x="595" y="-234.8" font-family="Helvetica,sans-Serif" font-size="11.00">Voyager_Ta2O5/</text>
<text xml:space="preserve" text-anchor="middle" x="595" y="-222.8" font-family="Helvetica,sans-Serif" font-size="11.00">2050 nm, 123 K</text>
<text xml:space="preserve" text-anchor="middle" x="595" y="-210.8" font-family="Helvetica,sans-Serif" font-size="11.00">SiO2 / Ta2O5</text>
</g>
<!-- voyager_ta2o5&#45;&gt;optimizer -->
<g id="edge12" class="edge">
<title>voyager_ta2o5&#45;&gt;optimizer</title>
<path fill="none" stroke="#228b22" stroke-dasharray="5,2" d="M556,-204.83C550.08,-202.04 543.95,-199.41 538,-197.25 461.18,-169.39 369.02,-150.32 307.52,-139.51"/>
<polygon fill="#228b22" stroke="#228b22" points="308.34,-136.1 297.89,-137.84 307.15,-143 308.34,-136.1"/>
</g>
<!-- hdf5&#45;&gt;plot -->
<g id="edge13" class="edge">
<title>hdf5&#45;&gt;plot</title>
<path fill="none" stroke="black" d="M610.9,-460.5C600.84,-471.34 587.13,-483.52 572,-489.75 537.03,-504.14 439.29,-491.46 402,-497.75 392.15,-499.41 347.56,-512.64 307.22,-524.9"/>
<polygon fill="black" stroke="black" points="306.25,-521.54 297.71,-527.8 308.29,-528.23 306.25,-521.54"/>
<text xml:space="preserve" text-anchor="middle" x="411" y="-498.95" font-family="Helvetica,sans-Serif" font-size="9.00">load</text>
</g>
<!-- hdf5&#45;&gt;mc -->
<g id="edge14" class="edge">
<title>hdf5&#45;&gt;mc</title>
<path fill="none" stroke="black" d="M610.94,-460.61C581.69,-495.58 518.27,-564.45 448,-597.25 403.5,-618.02 348.61,-627.73 306.98,-632.27"/>
<polygon fill="black" stroke="black" points="306.71,-628.78 297.11,-633.26 307.42,-635.74 306.71,-628.78"/>
<text xml:space="preserve" text-anchor="middle" x="556.98" y="-543.83" font-family="Helvetica,sans-Serif" font-size="9.00">load</text>
</g>
</g>
</svg>
